<svg width="23" height="23" viewBox="0 0 23 23" fill="none" xmlns="http://www.w3.org/2000/svg">
<path d="M8.22291 2.98461C9.16258 2.34757 10.2783 2 11.4299 2C12.9456 2 14.3993 2.60211 15.471 3.67388C16.5428 4.74565 17.1449 6.19929 17.1449 7.715C17.1449 9.71598 17.4023 11.288 17.7625 12.5084M5.9613 6.05502C5.79937 6.58844 5.71492 7.14737 5.71492 7.715C5.71492 10.6584 4.97242 12.6737 4.14298 14.0067C3.44333 15.131 3.09351 15.6932 3.10633 15.8501C3.12054 16.0237 3.15733 16.09 3.29726 16.1938C3.42364 16.2875 3.99336 16.2875 5.13281 16.2875H16.1924M8.90977 20.0975C9.58141 20.6903 10.4637 21.05 11.4299 21.05C12.3962 21.05 13.2784 20.6903 13.9501 20.0975M20.0024 20.0975L2.85742 2.9525" stroke="black" stroke-width="1.905" stroke-linecap="round" stroke-linejoin="round"/>
</svg>
