<svg width="25" height="25" viewBox="0 0 25 25" fill="none" xmlns="http://www.w3.org/2000/svg">
<path d="M12.2852 17.6534C12.2852 20.4149 14.5237 22.6534 17.2852 22.6534C20.0466 22.6534 22.2852 20.4149 22.2852 17.6534C22.2852 14.892 20.0466 12.6534 17.2852 12.6534C14.5237 12.6534 12.2852 14.892 12.2852 17.6534ZM12.2852 17.6534C12.2852 16.5276 12.6572 15.4887 13.2852 14.653V5.65344M12.2852 17.6534C12.2852 18.4788 12.4851 19.2574 12.8393 19.9436C11.9968 20.6552 10.051 21.1534 7.78516 21.1534C4.74759 21.1534 2.28516 20.258 2.28516 19.1534V5.65344M13.2852 5.65344C13.2852 6.75801 10.8227 7.65344 7.78516 7.65344C4.74759 7.65344 2.28516 6.75801 2.28516 5.65344M13.2852 5.65344C13.2852 4.54887 10.8227 3.65344 7.78516 3.65344C4.74759 3.65344 2.28516 4.54887 2.28516 5.65344M2.28516 14.6534C2.28516 15.758 4.74759 16.6534 7.78516 16.6534C9.97416 16.6534 11.8645 16.1884 12.7498 15.5152M13.2852 10.1534C13.2852 11.258 10.8227 12.1534 7.78516 12.1534C4.74759 12.1534 2.28516 11.258 2.28516 10.1534" stroke="white" stroke-width="2" stroke-linecap="round" stroke-linejoin="round"/>
</svg>
