<svg width="23" height="23" viewBox="0 0 23 23" fill="none" xmlns="http://www.w3.org/2000/svg">
<path d="M20.955 9.52812H1.90503M1.90503 7.81362L1.90503 15.0526C1.90503 16.1195 1.90503 16.653 2.11266 17.0605C2.2953 17.4189 2.58673 17.7104 2.94518 17.893C3.35268 18.1006 3.88613 18.1006 4.95303 18.1006L17.907 18.1006C18.9739 18.1006 19.5074 18.1006 19.9149 17.893C20.2733 17.7104 20.5648 17.4189 20.7474 17.0605C20.955 16.653 20.955 16.1195 20.955 15.0526V7.81363C20.955 6.74673 20.955 6.21328 20.7474 5.80577C20.5648 5.44733 20.2733 5.1559 19.9149 4.97326C19.5074 4.76563 18.9739 4.76563 17.907 4.76563L4.95303 4.76563C3.88613 4.76562 3.35268 4.76562 2.94518 4.97326C2.58673 5.1559 2.2953 5.44732 2.11266 5.80577C1.90503 6.21327 1.90503 6.74672 1.90503 7.81362Z" stroke="black" stroke-width="1.905" stroke-linecap="round" stroke-linejoin="round"/>
</svg>
