<svg width="25" height="25" viewBox="0 0 25 25" fill="none" xmlns="http://www.w3.org/2000/svg">
<path d="M9.36426 21.6531V14.2531C9.36426 13.693 9.36426 13.413 9.47325 13.1991C9.56912 13.0109 9.72211 12.8579 9.91027 12.7621C10.1242 12.6531 10.4042 12.6531 10.9643 12.6531H13.7643C14.3243 12.6531 14.6043 12.6531 14.8182 12.7621C15.0064 12.8579 15.1594 13.0109 15.2553 13.1991C15.3643 13.413 15.3643 13.693 15.3643 14.2531V21.6531M11.382 3.41707L4.59965 8.6922C4.14628 9.04482 3.91959 9.22113 3.75628 9.44193C3.61162 9.63752 3.50386 9.85786 3.43829 10.0921C3.36426 10.3566 3.36426 10.6438 3.36426 11.2181V18.4531C3.36426 19.5732 3.36426 20.1332 3.58224 20.561C3.77399 20.9374 4.07995 21.2433 4.45628 21.4351C4.8841 21.6531 5.44415 21.6531 6.56426 21.6531H18.1643C19.2844 21.6531 19.8444 21.6531 20.2722 21.4351C20.6486 21.2433 20.9545 20.9374 21.1463 20.561C21.3643 20.1332 21.3643 19.5732 21.3643 18.4531V11.2181C21.3643 10.6438 21.3643 10.3566 21.2902 10.0921C21.2247 9.85786 21.1169 9.63752 20.9722 9.44193C20.8089 9.22113 20.5822 9.04482 20.1289 8.6922L13.3466 3.41708C12.9952 3.14382 12.8196 3.0072 12.6256 2.95468C12.4545 2.90834 12.2741 2.90834 12.1029 2.95468C11.9089 3.0072 11.7333 3.14382 11.382 3.41707Z" stroke="white" stroke-width="2" stroke-linecap="round" stroke-linejoin="round"/>
</svg>
