<svg width="25" height="25" viewBox="0 0 25 25" fill="none" xmlns="http://www.w3.org/2000/svg">
<path d="M12.3643 22.6523C17.8871 22.6523 22.3643 18.1752 22.3643 12.6523C22.3643 7.1295 17.8871 2.65234 12.3643 2.65234C6.84141 2.65234 2.36426 7.1295 2.36426 12.6523C2.36426 18.1752 6.84141 22.6523 12.3643 22.6523Z" stroke="white" stroke-width="2" stroke-linecap="round" stroke-linejoin="round"/>
<path d="M15.0864 8.91831C15.5749 8.75546 15.8192 8.67403 15.9816 8.73196C16.123 8.78237 16.2342 8.89361 16.2846 9.03497C16.3426 9.19742 16.2611 9.44169 16.0983 9.93024L14.6107 14.3929C14.5644 14.532 14.5412 14.6016 14.5017 14.6594C14.4667 14.7105 14.4224 14.7547 14.3713 14.7897C14.3135 14.8293 14.2439 14.8525 14.1048 14.8988L9.64215 16.3864C9.1536 16.5492 8.90933 16.6307 8.74689 16.5727C8.60553 16.5223 8.49428 16.4111 8.44387 16.2697C8.38595 16.1073 8.46737 15.863 8.63022 15.3745L10.1178 10.9118C10.1641 10.7727 10.1873 10.7031 10.2269 10.6453C10.2619 10.5942 10.3061 10.5499 10.3572 10.5149C10.415 10.4754 10.4846 10.4522 10.6237 10.4059L15.0864 8.91831Z" stroke="white" stroke-width="2" stroke-linecap="round" stroke-linejoin="round"/>
</svg>
