<svg width="23" height="24" viewBox="0 0 23 24" fill="none" xmlns="http://www.w3.org/2000/svg">
<path d="M14.2875 9.48H14.2971M8.57253 9.48H8.58205M20.955 12.3375C20.955 17.598 16.6905 21.8625 11.43 21.8625C6.16952 21.8625 1.90503 17.598 1.90503 12.3375C1.90503 7.07699 6.16952 2.8125 11.43 2.8125C16.6905 2.8125 20.955 7.07699 20.955 12.3375ZM14.7638 9.48C14.7638 9.74303 14.5506 9.95625 14.2875 9.95625C14.0245 9.95625 13.8113 9.74303 13.8113 9.48C13.8113 9.21697 14.0245 9.00375 14.2875 9.00375C14.5506 9.00375 14.7638 9.21697 14.7638 9.48ZM9.04878 9.48C9.04878 9.74303 8.83555 9.95625 8.57253 9.95625C8.3095 9.95625 8.09628 9.74303 8.09628 9.48C8.09628 9.21697 8.3095 9.00375 8.57253 9.00375C8.83555 9.00375 9.04878 9.21697 9.04878 9.48ZM11.43 17.5762C13.8118 17.5762 15.7163 15.8303 15.7163 14.2425H7.14378C7.14378 15.8303 9.0483 17.5762 11.43 17.5762Z" stroke="white" stroke-width="1.905" stroke-linecap="round" stroke-linejoin="round"/>
</svg>
