<svg width="8" height="8" viewBox="0 0 8 8" fill="none" xmlns="http://www.w3.org/2000/svg">
<g clip-path="url(#clip0_142_2)">
<path d="M0.625 0.75C0.417187 0.75 0.25 0.917187 0.25 1.125V1.875C0.25 2.08281 0.417187 2.25 0.625 2.25H1.375C1.58281 2.25 1.75 2.08281 1.75 1.875V1.125C1.75 0.917187 1.58281 0.75 1.375 0.75H0.625ZM3 1C2.72344 1 2.5 1.22344 2.5 1.5C2.5 1.77656 2.72344 2 3 2H7.5C7.77656 2 8 1.77656 8 1.5C8 1.22344 7.77656 1 7.5 1H3ZM3 3.5C2.72344 3.5 2.5 3.72344 2.5 4C2.5 4.27656 2.72344 4.5 3 4.5H7.5C7.77656 4.5 8 4.27656 8 4C8 3.72344 7.77656 3.5 7.5 3.5H3ZM3 6C2.72344 6 2.5 6.22344 2.5 6.5C2.5 6.77656 2.72344 7 3 7H7.5C7.77656 7 8 6.77656 8 6.5C8 6.22344 7.77656 6 7.5 6H3ZM0.25 3.625V4.375C0.25 4.58281 0.417187 4.75 0.625 4.75H1.375C1.58281 4.75 1.75 4.58281 1.75 4.375V3.625C1.75 3.41719 1.58281 3.25 1.375 3.25H0.625C0.417187 3.25 0.25 3.41719 0.25 3.625ZM0.625 5.75C0.417187 5.75 0.25 5.91719 0.25 6.125V6.875C0.25 7.08281 0.417187 7.25 0.625 7.25H1.375C1.58281 7.25 1.75 7.08281 1.75 6.875V6.125C1.75 5.91719 1.58281 5.75 1.375 5.75H0.625Z" fill="white"/>
</g>
<defs>
<clipPath id="clip0_142_2">
<rect width="8" height="8" fill="white"/>
</clipPath>
</defs>
</svg>
