<svg width="18" height="15" viewBox="0 0 18 15" fill="none" xmlns="http://www.w3.org/2000/svg">
<path d="M11.25 0.500005C11.7767 0.499942 12.2942 0.638554 12.7503 0.901903C13.2065 1.16525 13.5852 1.54406 13.8486 2.00022C14.1119 2.45639 14.2505 2.97385 14.2504 3.50056C14.2503 4.02728 14.1115 4.54468 13.848 5.00075L17.25 5V6.5H15.75V14C15.75 14.1989 15.671 14.3897 15.5303 14.5303C15.3897 14.671 15.1989 14.75 15 14.75H3C2.80109 14.75 2.61032 14.671 2.46967 14.5303C2.32902 14.3897 2.25 14.1989 2.25 14V6.5H0.75V5L4.152 5.00075C3.7799 4.35642 3.66052 3.5968 3.81704 2.86938C3.97356 2.14197 4.39481 1.49868 4.999 1.06442C5.60319 0.630157 6.3472 0.435917 7.08656 0.519414C7.82592 0.60291 8.50788 0.958186 9 1.51625C9.28095 1.19629 9.62705 0.940085 10.0151 0.764813C10.4032 0.589541 10.8242 0.499254 11.25 0.500005V0.500005ZM8.25 6.5H3.75V13.25H8.25V6.5ZM14.25 6.5H9.75V13.25H14.25V6.5ZM6.75 2C6.36076 1.99826 5.98609 2.14789 5.70514 2.41729C5.42418 2.68668 5.25895 3.05474 5.24434 3.44371C5.22974 3.83268 5.36691 4.21209 5.62687 4.50179C5.88683 4.7915 6.24923 4.9688 6.6375 4.99625L6.75 5H8.25V3.5C8.25002 3.14155 8.12167 2.79494 7.88819 2.52295C7.65472 2.25095 7.33157 2.07156 6.97725 2.01725L6.86175 2.00375L6.75 2ZM11.25 2C10.8716 1.99988 10.5071 2.14281 10.2296 2.40013C9.9521 2.65744 9.78213 3.01014 9.75375 3.3875L9.75 3.5V5H11.25C11.6284 5.00012 11.9929 4.8572 12.2704 4.59988C12.5479 4.34256 12.7179 3.98987 12.7463 3.6125L12.75 3.5C12.75 3.10218 12.592 2.72065 12.3107 2.43934C12.0294 2.15804 11.6478 2 11.25 2V2Z" fill="white"/>
</svg>
