<svg width="21" height="23" viewBox="0 0 21 23" fill="none" xmlns="http://www.w3.org/2000/svg">
<path d="M18.8642 6.93067L10.3642 11.6529M10.3642 11.6529L1.86423 6.93067M10.3642 11.6529L10.3643 21.1529M19.3643 15.7115V7.59436C19.3643 7.25172 19.3643 7.0804 19.3138 6.9276C19.2691 6.79242 19.1961 6.66834 19.0996 6.56365C18.9906 6.44531 18.8408 6.36211 18.5413 6.19571L11.1413 2.0846C10.8577 1.92704 10.7159 1.84826 10.5657 1.81738C10.4328 1.79004 10.2957 1.79004 10.1628 1.81738C10.0126 1.84826 9.87083 1.92704 9.58723 2.0846L2.18723 6.19571C1.88771 6.36211 1.73794 6.44532 1.62889 6.56365C1.53242 6.66834 1.45941 6.79242 1.41474 6.9276C1.36426 7.0804 1.36426 7.25172 1.36426 7.59436V15.7115C1.36426 16.0541 1.36426 16.2254 1.41474 16.3782C1.45941 16.5134 1.53242 16.6375 1.62889 16.7422C1.73794 16.8605 1.88771 16.9437 2.18723 17.1101L9.58723 21.2212C9.87084 21.3788 10.0126 21.4576 10.1628 21.4885C10.2957 21.5158 10.4328 21.5158 10.5657 21.4885C10.7159 21.4576 10.8577 21.3788 11.1413 21.2212L18.5413 17.1101C18.8408 16.9437 18.9906 16.8605 19.0996 16.7422C19.1961 16.6375 19.2691 16.5134 19.3138 16.3782C19.3643 16.2254 19.3643 16.0541 19.3643 15.7115Z" stroke="white" stroke-width="2" stroke-linecap="round" stroke-linejoin="round"/>
</svg>
