<svg width="16" height="16" viewBox="0 0 16 16" fill="none" xmlns="http://www.w3.org/2000/svg">
<path d="M0.5 8.00002C0.5 7.35127 0.5825 6.72276 0.737 6.12201C1.15135 6.1438 1.56365 6.05058 1.92833 5.85267C2.29301 5.65475 2.59586 5.35986 2.8034 5.00057C3.01095 4.64129 3.1151 4.23161 3.10436 3.81683C3.09361 3.40205 2.96837 2.99832 2.7425 2.65026C3.64921 1.75819 4.7681 1.11164 5.99375 0.771515C6.18199 1.14162 6.46898 1.45242 6.82294 1.6695C7.1769 1.88658 7.58402 2.00148 7.99925 2.00148C8.41448 2.00148 8.8216 1.88658 9.17556 1.6695C9.52952 1.45242 9.81651 1.14162 10.0048 0.771515C11.2304 1.11164 12.3493 1.75819 13.256 2.65026C13.0299 2.99838 12.9045 3.40227 12.8936 3.81724C12.8828 4.23221 12.987 4.64209 13.1946 5.00152C13.4023 5.36096 13.7054 5.65594 14.0703 5.85383C14.4352 6.05171 14.8477 6.14479 15.2623 6.12276C15.4167 6.72276 15.4993 7.35127 15.4993 8.00002C15.4993 8.64877 15.4167 9.27726 15.2623 9.87802C14.8478 9.85609 14.4354 9.9492 14.0706 10.147C13.7059 10.3449 13.4029 10.6398 13.1953 10.9991C12.9876 11.3584 12.8834 11.7681 12.8941 12.183C12.9048 12.5979 13.0301 13.0017 13.256 13.3498C12.3493 14.2418 11.2304 14.8884 10.0048 15.2285C9.81651 14.8584 9.52952 14.5476 9.17556 14.3305C8.8216 14.1135 8.41448 13.9985 7.99925 13.9985C7.58402 13.9985 7.1769 14.1135 6.82294 14.3305C6.46898 14.5476 6.18199 14.8584 5.99375 15.2285C4.7681 14.8884 3.64921 14.2418 2.7425 13.3498C2.96863 13.0016 3.09405 12.5978 3.10488 12.1828C3.11571 11.7678 3.01152 11.3579 2.80386 10.9985C2.59619 10.6391 2.29314 10.3441 1.92823 10.1462C1.56332 9.94832 1.15078 9.85524 0.73625 9.87727C0.5825 9.27802 0.5 8.64952 0.5 8.00002ZM4.103 10.25C4.5755 11.0683 4.7105 12.0095 4.526 12.893C4.832 13.1105 5.1575 13.2988 5.49875 13.4555C6.18625 12.8396 7.07699 12.4994 8 12.5C8.945 12.5 9.8285 12.8533 10.5013 13.4555C10.8425 13.2988 11.168 13.1105 11.474 12.893C11.2846 11.99 11.4352 11.0488 11.897 10.25C12.358 9.4508 13.0978 8.84988 13.9745 8.56252C14.0092 8.18832 14.0092 7.81171 13.9745 7.43752C13.0975 7.15031 12.3574 6.54938 11.8962 5.75001C11.4345 4.95121 11.2838 4.01004 11.4733 3.10701C11.1673 2.88946 10.8417 2.70113 10.5005 2.54451C9.81319 3.16021 8.92276 3.50047 8 3.50001C7.07699 3.50066 6.18625 3.16039 5.49875 2.54451C5.1576 2.70113 4.83192 2.88946 4.526 3.10701C4.71542 4.01004 4.56479 4.95121 4.103 5.75001C3.64203 6.54924 2.90224 7.15015 2.0255 7.43752C1.99081 7.81171 1.99081 8.18832 2.0255 8.56252C2.90252 8.84972 3.6426 9.45065 4.10375 10.25H4.103ZM8 10.25C7.40326 10.25 6.83097 10.013 6.40901 9.59101C5.98705 9.16905 5.75 8.59675 5.75 8.00002C5.75 7.40328 5.98705 6.83098 6.40901 6.40902C6.83097 5.98707 7.40326 5.75001 8 5.75001C8.59674 5.75001 9.16903 5.98707 9.59099 6.40902C10.0129 6.83098 10.25 7.40328 10.25 8.00002C10.25 8.59675 10.0129 9.16905 9.59099 9.59101C9.16903 10.013 8.59674 10.25 8 10.25ZM8 8.75002C8.19891 8.75002 8.38968 8.671 8.53033 8.53034C8.67098 8.38969 8.75 8.19893 8.75 8.00002C8.75 7.8011 8.67098 7.61034 8.53033 7.46968C8.38968 7.32903 8.19891 7.25002 8 7.25002C7.80109 7.25002 7.61032 7.32903 7.46967 7.46968C7.32902 7.61034 7.25 7.8011 7.25 8.00002C7.25 8.19893 7.32902 8.38969 7.46967 8.53034C7.61032 8.671 7.80109 8.75002 8 8.75002Z" fill="#525866"/>
</svg>
