<svg width="23" height="24" viewBox="0 0 23 24" fill="none" xmlns="http://www.w3.org/2000/svg">
<path d="M11.43 15.1091C13.0082 15.1091 14.2875 13.8297 14.2875 12.2516C14.2875 10.6734 13.0082 9.39406 11.43 9.39406C9.85188 9.39406 8.57253 10.6734 8.57253 12.2516C8.57253 13.8297 9.85188 15.1091 11.43 15.1091Z" stroke="black" stroke-width="1.905" stroke-linecap="round" stroke-linejoin="round"/>
<path d="M17.8378 14.8493C17.7225 15.1105 17.6881 15.4002 17.739 15.6811C17.79 15.962 17.9239 16.2212 18.1235 16.4252L18.1755 16.4772C18.3365 16.638 18.4642 16.829 18.5514 17.0393C18.6385 17.2495 18.6834 17.4749 18.6834 17.7025C18.6834 17.93 18.6385 18.1554 18.5514 18.3656C18.4642 18.5759 18.3365 18.7669 18.1755 18.9277C18.0146 19.0887 17.8236 19.2165 17.6134 19.3036C17.4031 19.3908 17.1778 19.4356 16.9502 19.4356C16.7226 19.4356 16.4973 19.3908 16.287 19.3036C16.0768 19.2165 15.8858 19.0887 15.7249 18.9277L15.673 18.8758C15.4689 18.6761 15.2097 18.5422 14.9288 18.4913C14.6479 18.4404 14.3582 18.4748 14.097 18.59C13.8409 18.6998 13.6225 18.882 13.4686 19.1144C13.3148 19.3467 13.2322 19.6189 13.2311 19.8975V20.0447C13.2311 20.5041 13.0487 20.9445 12.7239 21.2693C12.3991 21.5941 11.9586 21.7766 11.4993 21.7766C11.04 21.7766 10.5995 21.5941 10.2747 21.2693C9.94994 20.9445 9.76748 20.5041 9.76748 20.0447V19.9668C9.76078 19.6802 9.66801 19.4022 9.50123 19.1691C9.33445 18.9359 9.10137 18.7582 8.8323 18.6593C8.57113 18.544 8.28142 18.5096 8.00052 18.5606C7.71962 18.6115 7.46042 18.7454 7.25635 18.945L7.20439 18.997C7.04355 19.158 6.85255 19.2858 6.64231 19.3729C6.43208 19.4601 6.20672 19.5049 5.97913 19.5049C5.75154 19.5049 5.52619 19.4601 5.31595 19.3729C5.10571 19.2858 4.91471 19.158 4.75387 18.997C4.59285 18.8362 4.46511 18.6452 4.37796 18.4349C4.29081 18.2247 4.24595 17.9993 4.24595 17.7717C4.24595 17.5441 4.29081 17.3188 4.37796 17.1086C4.46511 16.8983 4.59285 16.7073 4.75387 16.5465L4.80582 16.4945C5.00545 16.2904 5.13936 16.0312 5.19029 15.7503C5.24122 15.4694 5.20684 15.1797 5.09157 14.9186C4.98181 14.6625 4.79955 14.444 4.56724 14.2902C4.33492 14.1363 4.06269 14.0538 3.78405 14.0527H3.63685C3.17754 14.0527 2.73705 13.8702 2.41227 13.5454C2.08749 13.2206 1.90503 12.7801 1.90503 12.3208C1.90503 11.8615 2.08749 11.421 2.41227 11.0963C2.73705 10.7715 3.17754 10.589 3.63685 10.589H3.71478C4.00139 10.5823 4.27936 10.4895 4.51254 10.3228C4.74573 10.156 4.92334 9.9229 5.0223 9.65384C5.13757 9.39266 5.17195 9.10295 5.12102 8.82205C5.07009 8.54116 4.93618 8.28196 4.73655 8.07788L4.6846 8.02593C4.52358 7.86509 4.39584 7.67409 4.30869 7.46385C4.22154 7.25361 4.17668 7.02825 4.17668 6.80066C4.17668 6.57308 4.22154 6.34772 4.30869 6.13748C4.39584 5.92724 4.52358 5.73624 4.6846 5.5754C4.84544 5.41439 5.03644 5.28665 5.24668 5.1995C5.45692 5.11234 5.68227 5.06748 5.90986 5.06748C6.13745 5.06748 6.3628 5.11234 6.57304 5.1995C6.78328 5.28665 6.97428 5.41439 7.13512 5.5754L7.18707 5.62736C7.39115 5.82698 7.65035 5.96089 7.93125 6.01183C8.21214 6.06276 8.50186 6.02837 8.76303 5.91311H8.8323C9.08841 5.80334 9.30684 5.62108 9.46069 5.38877C9.61454 5.15646 9.6971 4.88422 9.69821 4.60559V4.45838C9.69821 3.99907 9.88067 3.55858 10.2054 3.2338C10.5302 2.90902 10.9707 2.72656 11.43 2.72656C11.8893 2.72656 12.3298 2.90902 12.6546 3.2338C12.9794 3.55858 13.1618 3.99907 13.1618 4.45838V4.53631C13.163 4.81495 13.2455 5.08718 13.3994 5.3195C13.5532 5.55181 13.7716 5.73407 14.0278 5.84384C14.2889 5.9591 14.5786 5.99348 14.8595 5.94255C15.1404 5.89162 15.3996 5.75771 15.6037 5.55809L15.6557 5.50613C15.8165 5.34511 16.0075 5.21738 16.2177 5.13022C16.428 5.04307 16.6533 4.99821 16.8809 4.99821C17.1085 4.99821 17.3339 5.04307 17.5441 5.13022C17.7544 5.21738 17.9453 5.34511 18.1062 5.50613C18.2672 5.66697 18.3949 5.85797 18.4821 6.06821C18.5692 6.27845 18.6141 6.5038 18.6141 6.73139C18.6141 6.95898 18.5692 7.18434 18.4821 7.39458C18.3949 7.60481 18.2672 7.79581 18.1062 7.95665L18.0542 8.00861C17.8546 8.21268 17.7207 8.47188 17.6698 8.75278C17.6188 9.03368 17.6532 9.32339 17.7685 9.58456V9.65384C17.8782 9.90994 18.0605 10.1284 18.2928 10.2822C18.5251 10.4361 18.7974 10.5186 19.076 10.5197H19.2232C19.6825 10.5197 20.123 10.7022 20.4478 11.027C20.7726 11.3518 20.955 11.7923 20.955 12.2516C20.955 12.7109 20.7726 13.1514 20.4478 13.4761C20.123 13.8009 19.6825 13.9834 19.2232 13.9834H19.1453C18.8666 13.9845 18.5944 14.0671 18.3621 14.2209C18.1298 14.3748 17.9475 14.5932 17.8378 14.8493Z" stroke="black" stroke-width="1.905" stroke-linecap="round" stroke-linejoin="round"/>
</svg>
