<svg width="23" height="23" viewBox="0 0 23 23" fill="none" xmlns="http://www.w3.org/2000/svg">
<path d="M11.3643 1.65234C12.6775 1.65234 13.9778 1.911 15.1911 2.41355C16.4043 2.9161 17.5067 3.65269 18.4353 4.58128C19.3639 5.50986 20.1005 6.61226 20.6031 7.82551C21.1056 9.03877 21.3643 10.3391 21.3643 11.6524M11.3643 1.65234V11.6523M11.3643 1.65234C5.84141 1.65234 1.36426 6.1295 1.36426 11.6523C1.36426 17.1752 5.84141 21.6523 11.3643 21.6523C16.8871 21.6523 21.3643 17.1752 21.3643 11.6524M11.3643 1.65234C16.8871 1.65234 21.3643 6.1295 21.3643 11.6524M21.3643 11.6524L11.3643 11.6523M21.3643 11.6524C21.3643 13.2305 20.9908 14.7861 20.2743 16.1922C19.5579 17.5984 18.5188 18.8149 17.2421 19.7425L11.3643 11.6523" stroke="white" stroke-width="2" stroke-linecap="round" stroke-linejoin="round"/>
</svg>
