<svg width="24" height="24" viewBox="0 0 24 24" fill="none" xmlns="http://www.w3.org/2000/svg">
<path d="M2.6543 2.8125H3.89826C4.13257 2.8125 4.24972 2.8125 4.344 2.85559C4.42708 2.89356 4.49748 2.95462 4.54682 3.0315C4.60281 3.11873 4.61937 3.23471 4.65251 3.46666L5.10328 6.62202M5.10328 6.62202L6.10508 13.9853C6.23221 14.9197 6.29577 15.3869 6.51915 15.7385C6.71599 16.0484 6.99819 16.2948 7.33178 16.4481C7.71036 16.622 8.18186 16.622 9.12488 16.622H17.2752C18.1729 16.622 18.6217 16.622 18.9885 16.4605C19.312 16.3181 19.5894 16.0885 19.7898 15.7975C20.0171 15.4674 20.1011 15.0265 20.269 14.1447L21.5296 7.52649C21.5888 7.21613 21.6183 7.06094 21.5755 6.93964C21.5379 6.83323 21.4637 6.74363 21.3662 6.6868C21.2551 6.62202 21.0971 6.62202 20.7812 6.62202H5.10328ZM10.2733 20.9077C10.2733 21.4337 9.84695 21.8601 9.32096 21.8601C8.79498 21.8601 8.36858 21.4337 8.36858 20.9077C8.36858 20.3818 8.79498 19.9554 9.32096 19.9554C9.84695 19.9554 10.2733 20.3818 10.2733 20.9077ZM17.8924 20.9077C17.8924 21.4337 17.466 21.8601 16.94 21.8601C16.414 21.8601 15.9876 21.4337 15.9876 20.9077C15.9876 20.3818 16.414 19.9554 16.94 19.9554C17.466 19.9554 17.8924 20.3818 17.8924 20.9077Z" stroke="white" stroke-width="1.90476" stroke-linecap="round" stroke-linejoin="round"/>
</svg>
