<svg width="22" height="22" viewBox="0 0 22 22" fill="none" xmlns="http://www.w3.org/2000/svg">
<path d="M7.36858 13.1415C7.36858 13.1415 8.79715 15.0462 11.1781 15.0462C13.5591 15.0462 14.9876 13.1415 14.9876 13.1415M14.0352 8.37956H14.0448M7.36858 8.37956H9.27334M20.7019 11.2367C20.7019 16.4966 16.438 20.7605 11.1781 20.7605C5.91825 20.7605 1.6543 16.4966 1.6543 11.2367C1.6543 5.97685 5.91825 1.71289 11.1781 1.71289C16.438 1.71289 20.7019 5.97685 20.7019 11.2367ZM14.5114 8.37956C14.5114 8.64255 14.2982 8.85575 14.0352 8.85575C13.7723 8.85575 13.5591 8.64255 13.5591 8.37956C13.5591 8.11656 13.7723 7.90337 14.0352 7.90337C14.2982 7.90337 14.5114 8.11656 14.5114 8.37956Z" stroke="white" stroke-width="1.90476" stroke-linecap="round" stroke-linejoin="round"/>
</svg>
