<svg width="23" height="19" viewBox="0 0 23 19" fill="none" xmlns="http://www.w3.org/2000/svg">
<path d="M13.3643 4.65234H15.7015C15.9461 4.65234 16.0684 4.65234 16.1835 4.67997C16.2855 4.70447 16.3831 4.74487 16.4725 4.7997C16.5735 4.86155 16.6599 4.94802 16.8329 5.12097L20.8956 9.18371C21.0686 9.35667 21.1551 9.44314 21.2169 9.54406C21.2717 9.63353 21.3121 9.73108 21.3366 9.83311C21.3643 9.9482 21.3643 10.0705 21.3643 10.3151V13.1523C21.3643 13.6183 21.3643 13.8513 21.2881 14.035C21.1866 14.2801 20.992 14.4747 20.7469 14.5762C20.5632 14.6523 20.3302 14.6523 19.8643 14.6523M14.8643 14.6523H13.3643M13.3643 14.6523V4.85234C13.3643 3.73224 13.3643 3.17219 13.1463 2.74436C12.9545 2.36804 12.6486 2.06208 12.2722 1.87033C11.8444 1.65234 11.2844 1.65234 10.1643 1.65234H4.56426C3.44415 1.65234 2.8841 1.65234 2.45628 1.87033C2.07995 2.06208 1.77399 2.36804 1.58224 2.74436C1.36426 3.17219 1.36426 3.73224 1.36426 4.85234V12.6523C1.36426 13.7569 2.25969 14.6523 3.36426 14.6523M13.3643 14.6523H9.36426M9.36426 14.6523C9.36426 16.3092 8.02111 17.6523 6.36426 17.6523C4.7074 17.6523 3.36426 16.3092 3.36426 14.6523M9.36426 14.6523C9.36426 12.9955 8.02111 11.6523 6.36426 11.6523C4.7074 11.6523 3.36426 12.9955 3.36426 14.6523M19.8643 15.1523C19.8643 16.5331 18.745 17.6523 17.3643 17.6523C15.9835 17.6523 14.8643 16.5331 14.8643 15.1523C14.8643 13.7716 15.9835 12.6523 17.3643 12.6523C18.745 12.6523 19.8643 13.7716 19.8643 15.1523Z" stroke="white" stroke-width="2" stroke-linecap="round" stroke-linejoin="round"/>
</svg>
