<svg width="24" height="24" viewBox="0 0 24 24" fill="none" xmlns="http://www.w3.org/2000/svg">
<path d="M8.36858 8.28655H8.37811M2.6543 5.61988L2.6543 9.88133C2.6543 10.3472 2.6543 10.5802 2.70693 10.7994C2.75359 10.9937 2.83055 11.1795 2.93498 11.3499C3.05278 11.5422 3.21749 11.7069 3.54692 12.0363L10.8504 19.3398C11.9819 20.4713 12.5476 21.037 13.2 21.249C13.7738 21.4354 14.3919 21.4354 14.9658 21.249C15.6181 21.037 16.1839 20.4713 17.3154 19.3398L19.4218 17.2333C20.5533 16.1018 21.119 15.5361 21.331 14.8837C21.5174 14.3099 21.5174 13.6918 21.331 13.1179C21.119 12.4656 20.5533 11.8998 19.4218 10.7683L12.1184 3.46489C11.7889 3.13546 11.6242 2.97074 11.432 2.85295C11.2616 2.74852 11.0758 2.67155 10.8814 2.62489C10.6622 2.57227 10.4292 2.57227 9.96336 2.57227L5.70192 2.57227C4.63515 2.57227 4.10177 2.57227 3.69432 2.77987C3.33591 2.96249 3.04452 3.25388 2.8619 3.61228C2.6543 4.01973 2.6543 4.55312 2.6543 5.61988ZM8.84478 8.28655C8.84478 8.54954 8.63158 8.76274 8.36858 8.76274C8.10559 8.76274 7.89239 8.54954 7.89239 8.28655C7.89239 8.02356 8.10559 7.81036 8.36858 7.81036C8.63158 7.81036 8.84478 8.02356 8.84478 8.28655Z" stroke="white" stroke-width="2.38095" stroke-linecap="round" stroke-linejoin="round"/>
</svg>
