<svg width="14" height="13" viewBox="0 0 14 13" fill="none" xmlns="http://www.w3.org/2000/svg">
<path d="M6.99988 1.37494C8.38057 1.37494 9.49988 2.49423 9.49988 3.87494C9.49988 4.21521 9.43219 4.53862 9.30975 4.83331C8.28413 4.94317 7.31475 5.47402 6.67513 6.35414C5.88813 6.25208 5.21535 5.78408 4.83374 5.12413C4.62152 4.75712 4.49987 4.33118 4.49987 3.87494C4.49987 2.49423 5.61915 1.37494 6.99988 1.37494ZM10.6021 4.92024C10.6983 4.58813 10.7499 4.23729 10.7499 3.87494C10.7499 1.80387 9.07094 0.12494 6.99988 0.124939C4.9288 0.124938 3.24987 1.80387 3.24987 3.87494C3.24987 4.2373 3.30142 4.58816 3.39767 4.92028C3.06197 5.00299 2.73238 5.13376 2.4186 5.31492C0.624998 6.35045 0.0104666 8.64389 1.046 10.4375C2.08154 12.2311 4.375 12.8456 6.16857 11.8101C6.48238 11.629 6.76044 11.4089 6.99988 11.1595C7.23938 11.4089 7.51738 11.6289 7.83113 11.8101C9.62475 12.8456 11.9182 12.2311 12.9538 10.4375C13.9893 8.64389 13.3748 6.35039 11.5811 5.31487C11.2674 5.13372 10.9378 5.00295 10.6021 4.92024ZM7.72132 10.0839C8.13907 9.1407 8.16407 8.0357 7.72169 7.0417C8.20357 6.41108 8.94519 6.06245 9.7075 6.06195C10.1314 6.0617 10.5611 6.16933 10.9561 6.39739C12.1519 7.08777 12.5616 8.61677 11.8712 9.81245C11.1808 11.0082 9.65188 11.4179 8.45613 10.7275C8.1615 10.5575 7.91532 10.3372 7.72132 10.0839ZM6.60294 7.60427C6.90813 8.33689 6.83919 9.15352 6.45844 9.81395C6.24669 10.1812 5.93869 10.4995 5.5436 10.7276C4.34787 11.418 2.81889 11.0083 2.12854 9.81252C1.43818 8.61677 1.84787 7.08783 3.0436 6.39745C3.33827 6.22733 3.65217 6.1242 3.96857 6.08289C4.57655 6.9162 5.52096 7.49033 6.60294 7.60427Z" fill="white"/>
</svg>
