<svg width="20" height="23" viewBox="0 0 20 23" fill="none" xmlns="http://www.w3.org/2000/svg">
<path d="M17.3643 9.65234V6.45234C17.3643 4.77219 17.3643 3.93211 17.0373 3.29037C16.7497 2.72589 16.2907 2.26694 15.7262 1.97932C15.0845 1.65234 14.2444 1.65234 12.5643 1.65234H6.16426C4.4841 1.65234 3.64402 1.65234 3.00229 1.97932C2.4378 2.26694 1.97886 2.72589 1.69124 3.29037C1.36426 3.93211 1.36426 4.77219 1.36426 6.45234V16.8523C1.36426 18.5325 1.36426 19.3726 1.69124 20.0143C1.97886 20.5788 2.4378 21.0377 3.00229 21.3254C3.64402 21.6523 4.4841 21.6523 6.16426 21.6523H9.36426M14.3615 14.4829C13.5618 13.5739 12.2282 13.3294 11.2261 14.1618C10.2241 14.9942 10.083 16.3858 10.8699 17.3703C11.6568 18.3547 14.3615 20.6523 14.3615 20.6523C14.3615 20.6523 17.0662 18.3547 17.8531 17.3703C18.64 16.3858 18.5161 14.9854 17.4969 14.1618C16.4777 13.3382 15.1613 13.5739 14.3615 14.4829Z" stroke="white" stroke-width="2" stroke-linecap="round" stroke-linejoin="round"/>
</svg>
