<svg width="23" height="21" viewBox="0 0 23 21" fill="none" xmlns="http://www.w3.org/2000/svg">
<path d="M11.3643 19.6523L11.2642 19.5023C10.5696 18.4603 10.2222 17.9393 9.76336 17.5622C9.35712 17.2283 8.88902 16.9778 8.38586 16.8249C7.81751 16.6523 7.19137 16.6523 5.93908 16.6523H4.56426C3.44415 16.6523 2.8841 16.6523 2.45628 16.4344C2.07995 16.2426 1.77399 15.9366 1.58224 15.5603C1.36426 15.1325 1.36426 14.5724 1.36426 13.4523V4.85234C1.36426 3.73224 1.36426 3.17219 1.58224 2.74436C1.77399 2.36804 2.07995 2.06208 2.45628 1.87033C2.8841 1.65234 3.44415 1.65234 4.56426 1.65234H4.96426C7.20447 1.65234 8.32457 1.65234 9.18022 2.08832C9.93287 2.47181 10.5448 3.08373 10.9283 3.83638C11.3643 4.69203 11.3643 5.81213 11.3643 8.05234M11.3643 19.6523V8.05234M11.3643 19.6523L11.4643 19.5023C12.159 18.4603 12.5063 17.9393 12.9652 17.5622C13.3714 17.2283 13.8395 16.9778 14.3427 16.8249C14.911 16.6523 15.5371 16.6523 16.7894 16.6523H18.1643C19.2844 16.6523 19.8444 16.6523 20.2722 16.4344C20.6486 16.2426 20.9545 15.9366 21.1463 15.5603C21.3643 15.1325 21.3643 14.5724 21.3643 13.4523V4.85234C21.3643 3.73224 21.3643 3.17219 21.1463 2.74436C20.9545 2.36804 20.6486 2.06208 20.2722 1.87033C19.8444 1.65234 19.2844 1.65234 18.1643 1.65234H17.7643C15.524 1.65234 14.4039 1.65234 13.5483 2.08832C12.7956 2.47181 12.1837 3.08373 11.8002 3.83638C11.3643 4.69203 11.3643 5.81213 11.3643 8.05234" stroke="white" stroke-width="2" stroke-linecap="round" stroke-linejoin="round"/>
</svg>
