<svg width="40" height="40" viewBox="0 0 40 40" fill="none" xmlns="http://www.w3.org/2000/svg">
<path d="M33.897 27.3477C31.6351 27.3477 29.7939 29.2426 29.7939 31.5704C29.7939 33.8983 31.6351 35.7932 33.897 35.7932C36.1587 35.7932 37.9999 33.8983 37.9999 31.5704C37.9999 29.2488 36.1587 27.3477 33.897 27.3477ZM36.3233 31.5767C36.3233 32.9571 35.2321 34.0739 33.897 34.0739C32.5557 34.0739 31.4705 32.9508 31.4705 31.5767C31.4705 30.1963 32.5617 29.0794 33.897 29.0794C35.2321 29.0794 36.3233 30.1963 36.3233 31.5767Z" fill="black"/>
<path d="M6.10297 27.3477C3.84115 27.3477 2 29.2426 2 31.5704C2 33.8983 3.84115 35.7932 6.10297 35.7932C8.36478 35.7932 10.2059 33.8983 10.2059 31.5704C10.2059 29.2488 8.36478 27.3477 6.10297 27.3477ZM8.52938 31.5767C8.52938 32.9571 7.43811 34.0739 6.10297 34.0739C4.76173 34.0739 3.67654 32.9508 3.67654 31.5767C3.67654 30.1963 4.76782 29.0794 6.10297 29.0794C7.43811 29.0794 8.52938 30.1963 8.52938 31.5767Z" fill="black"/>
<path d="M19.9965 4.20703C17.7347 4.20703 15.8936 6.10193 15.8936 8.42978C15.8936 10.7576 17.7347 12.6525 19.9965 12.6525C22.2583 12.6525 24.0995 10.7576 24.0995 8.42978C24.0995 6.10193 22.2583 4.20703 19.9965 4.20703ZM22.4229 8.43605C22.4229 9.81644 21.3316 10.9333 19.9965 10.9333C18.6552 10.9333 17.5701 9.81017 17.5701 8.43605C17.5701 7.05566 18.6614 5.93877 19.9965 5.93877C21.3377 5.93252 22.4229 7.05566 22.4229 8.43605Z" fill="black"/>
<path d="M32.3802 27.8194L23.3146 11.0225L23.2293 10.8594L23.1134 11.0037C22.8025 11.4053 22.4185 11.7253 21.9856 11.97L21.8758 12.0327L21.9369 12.1457L29.9598 27.0162C27.1615 26.37 23.6805 26.0186 20.114 26.0186C16.1817 26.0186 12.6884 26.3637 9.98153 27.01L18.0046 12.1457L18.0656 12.0327L17.9558 11.97C17.5168 11.7315 17.1388 11.4053 16.8279 11.0037L16.7121 10.8594L16.6268 11.0225L7.5673 27.8194L7.49414 27.9511L7.62827 28.0013C8.07331 28.1582 8.48178 28.7292 8.84148 29.0554L8.90244 29.1119L8.9756 29.0743L9.00608 29.068C11.8958 28.246 15.7428 27.8068 20.1201 27.8068C24.0584 27.8068 27.8809 28.2523 30.8926 29.0617L30.9536 29.1809L31.0694 29.0868L31.0938 29.068C31.4596 28.7355 31.868 28.1645 32.3131 28.0076L32.4472 27.9574L32.3802 27.8194Z" fill="black"/>
</svg>
