<svg width="40" height="40" viewBox="0 0 40 40" fill="none" xmlns="http://www.w3.org/2000/svg">
<path d="M20.3569 16.8184V23.5956H29.9674C29.5454 25.7752 28.279 27.6207 26.3797 28.8616L32.1751 33.2684C35.5518 30.214 37.4999 25.7276 37.4999 20.3981C37.4999 19.1572 37.3863 17.9639 37.1752 16.8186L20.3569 16.8184Z" fill="#4285F4"/>
<path d="M10.3494 23.3301L9.04228 24.3106L4.41553 27.8424C7.35387 33.5537 13.3762 37.4992 20.3568 37.4992C25.1781 37.4992 29.2203 35.9401 32.175 33.2674L26.3795 28.8606C24.7885 29.9106 22.7593 30.547 20.3568 30.547C15.7139 30.547 11.7691 27.4766 10.3567 23.3402L10.3494 23.3301Z" fill="#34A853"/>
<path d="M4.41547 12.1562C3.19799 14.5107 2.5 17.1675 2.5 19.9993C2.5 22.8311 3.19799 25.4879 4.41547 27.8424C4.41547 27.8582 10.3572 23.3242 10.3572 23.3242C10.0001 22.2742 9.78895 21.1606 9.78895 19.9991C9.78895 18.8376 10.0001 17.724 10.3572 16.6741L4.41547 12.1562Z" fill="#FBBC05"/>
<path d="M20.3571 9.46815C22.9871 9.46815 25.3247 10.359 27.1916 12.0772L32.3053 7.06595C29.2046 4.23419 25.1787 2.5 20.3571 2.5C13.3766 2.5 7.35387 6.42953 4.41553 12.1568L10.3571 16.675C11.7693 12.5386 15.7142 9.46815 20.3571 9.46815Z" fill="#EA4335"/>
</svg>
