<svg width="40" height="40" viewBox="0 0 40 40" fill="none" xmlns="http://www.w3.org/2000/svg">
<path d="M30.0704 12.3787C29.8362 11.7756 29.5563 11.3448 29.104 10.8925C28.6518 10.4401 28.2211 10.1601 27.6181 9.92585C27.1632 9.74815 26.4795 9.53813 25.2196 9.48159C23.8575 9.41966 23.4484 9.4062 19.9974 9.4062C19.5667 9.4062 19.1817 9.4062 18.8372 9.4062C16.4279 9.4062 15.9676 9.42235 14.7751 9.4762C13.5153 9.53274 12.8316 9.74276 12.3766 9.92047C11.7736 10.1547 11.3429 10.4347 10.8907 10.8871C10.4385 11.3394 10.1585 11.7702 9.92431 12.3733C9.74664 12.8284 9.53667 13.5123 9.48014 14.7724C9.41823 16.1348 9.40477 16.5414 9.40477 19.9932C9.40477 23.445 9.41823 23.8542 9.48014 25.2166C9.53667 26.4767 9.74933 27.1606 9.92431 27.6157C10.1585 28.2188 10.4385 28.6496 10.8907 29.1019C11.3429 29.5543 11.7736 29.8343 12.3766 30.0686C12.8316 30.2463 13.5153 30.4563 14.7751 30.5155C16.1372 30.5774 16.5464 30.5909 19.9974 30.5909C23.4484 30.5909 23.8575 30.5774 25.2196 30.5155C26.4795 30.459 27.1632 30.249 27.6181 30.0712C28.2211 29.837 28.6518 29.557 29.104 29.1046C29.5563 28.6523 29.8362 28.2242 30.0704 27.6211C30.2481 27.166 30.4581 26.4821 30.5146 25.222C30.5765 23.8596 30.59 23.4504 30.59 20.0012C30.59 16.5521 30.5765 16.1429 30.5146 14.7805C30.4581 13.5204 30.2454 12.8365 30.0704 12.3814V12.3787ZM19.9974 26.6383C16.3337 26.6383 13.3619 23.6684 13.3619 20.0012C13.3619 16.334 16.3337 13.3642 19.9974 13.3642C23.661 13.3642 26.6329 16.3367 26.6329 20.0012C26.6329 23.6658 23.6637 26.6383 19.9974 26.6383ZM26.894 14.6539C26.038 14.6539 25.3435 13.9592 25.3435 13.103C25.3435 12.2468 26.038 11.5521 26.894 11.5521C27.75 11.5521 28.4445 12.2468 28.4445 13.103C28.4445 13.9592 27.75 14.6539 26.894 14.6539Z" fill="url(#paint0_radial_14597_14554)"/>
<path d="M30.0704 12.3787C29.8362 11.7756 29.5563 11.3448 29.104 10.8925C28.6518 10.4401 28.2211 10.1601 27.6181 9.92585C27.1632 9.74815 26.4795 9.53813 25.2196 9.48159C23.8575 9.41966 23.4484 9.4062 19.9974 9.4062C19.5667 9.4062 19.1817 9.4062 18.8372 9.4062C16.4279 9.4062 15.9676 9.42235 14.7751 9.4762C13.5153 9.53274 12.8316 9.74276 12.3766 9.92047C11.7736 10.1547 11.3429 10.4347 10.8907 10.8871C10.4385 11.3394 10.1585 11.7702 9.92431 12.3733C9.74664 12.8284 9.53667 13.5123 9.48014 14.7724C9.41823 16.1348 9.40477 16.5414 9.40477 19.9932C9.40477 23.445 9.41823 23.8542 9.48014 25.2166C9.53667 26.4767 9.74933 27.1606 9.92431 27.6157C10.1585 28.2188 10.4385 28.6496 10.8907 29.1019C11.3429 29.5543 11.7736 29.8343 12.3766 30.0686C12.8316 30.2463 13.5153 30.4563 14.7751 30.5155C16.1372 30.5774 16.5464 30.5909 19.9974 30.5909C23.4484 30.5909 23.8575 30.5774 25.2196 30.5155C26.4795 30.459 27.1632 30.249 27.6181 30.0712C28.2211 29.837 28.6518 29.557 29.104 29.1046C29.5563 28.6523 29.8362 28.2242 30.0704 27.6211C30.2481 27.166 30.4581 26.4821 30.5146 25.222C30.5765 23.8596 30.59 23.4504 30.59 20.0012C30.59 16.5521 30.5765 16.1429 30.5146 14.7805C30.4581 13.5204 30.2454 12.8365 30.0704 12.3814V12.3787ZM19.9974 26.6383C16.3337 26.6383 13.3619 23.6684 13.3619 20.0012C13.3619 16.334 16.3337 13.3642 19.9974 13.3642C23.661 13.3642 26.6329 16.3367 26.6329 20.0012C26.6329 23.6658 23.6637 26.6383 19.9974 26.6383ZM26.894 14.6539C26.038 14.6539 25.3435 13.9592 25.3435 13.103C25.3435 12.2468 26.038 11.5521 26.894 11.5521C27.75 11.5521 28.4445 12.2468 28.4445 13.103C28.4445 13.9592 27.75 14.6539 26.894 14.6539Z" fill="url(#paint1_radial_14597_14554)"/>
<path d="M19.9973 24.3094C22.376 24.3094 24.3043 22.3806 24.3043 20.0014C24.3043 17.6221 22.376 15.6934 19.9973 15.6934C17.6186 15.6934 15.6903 17.6221 15.6903 20.0014C15.6903 22.3806 17.6186 24.3094 19.9973 24.3094Z" fill="url(#paint2_radial_14597_14554)"/>
<path d="M19.9973 24.3094C22.376 24.3094 24.3043 22.3806 24.3043 20.0014C24.3043 17.6221 22.376 15.6934 19.9973 15.6934C17.6186 15.6934 15.6903 17.6221 15.6903 20.0014C15.6903 22.3806 17.6186 24.3094 19.9973 24.3094Z" fill="url(#paint3_radial_14597_14554)"/>
<path d="M37.4677 10.0848C37.3573 8.67932 37.1177 7.73425 36.6251 6.73533C36.2213 5.9168 35.7745 5.30829 35.1257 4.68363C33.9682 3.57701 32.5523 2.90388 30.8645 2.66155C30.0461 2.54308 29.8846 2.50808 25.7014 2.5H20.0054C12.6996 2.5 10.5622 2.50808 10.1477 2.54308C8.64828 2.66694 7.7142 2.90388 6.69935 3.41007C5.91601 3.80048 5.29688 4.25013 4.68851 4.88288C3.57676 6.03527 2.90378 7.45153 2.66151 9.13974C2.54307 9.95827 2.50808 10.1252 2.5 14.304C2.5 15.6987 2.5 17.5323 2.5 19.9933C2.5 27.2954 2.50808 29.4305 2.54307 29.8452C2.66421 31.3045 2.89302 32.2227 3.37756 33.227C4.30357 35.1494 6.07214 36.5926 8.15567 37.1311C8.8771 37.3169 9.6739 37.4192 10.6968 37.4677C11.1302 37.4865 15.5476 37.5 19.9677 37.5C24.3878 37.5 28.8079 37.4946 29.2305 37.4731C30.4149 37.4165 31.1041 37.325 31.8632 37.1284C33.9602 36.5872 35.6964 35.1656 36.6413 33.2162C37.1151 32.2361 37.3573 31.283 37.4677 29.899C37.4919 29.5975 37.5 24.7886 37.5 19.9879C37.5 15.1871 37.4892 10.3864 37.465 10.0848H37.4677ZM32.8403 25.3298C32.7757 26.7057 32.5577 27.6454 32.24 28.4666C31.9089 29.3174 31.4675 30.0363 30.7487 30.7552C30.03 31.4741 29.3113 31.9157 28.4606 32.2469C27.6396 32.5673 26.6974 32.7854 25.3219 32.8473C23.9436 32.9093 23.5048 32.9254 19.9946 32.9254C16.4844 32.9254 16.0456 32.9093 14.6674 32.8473C13.2918 32.7854 12.3523 32.5673 11.5313 32.2469C10.6807 31.9157 9.96193 31.4741 9.24319 30.7552C8.52446 30.0363 8.08299 29.3148 7.75188 28.4666C7.43155 27.6454 7.2162 26.7057 7.15159 25.3298C7.08968 23.9513 7.07353 23.5124 7.07353 20.0013C7.07353 16.4903 7.08968 16.0514 7.15159 14.6729C7.21351 13.297 7.43155 12.3573 7.75188 11.5361C8.08299 10.6852 8.52446 9.96634 9.24319 9.24744C9.96193 8.52854 10.6834 8.08697 11.5313 7.75848C12.3523 7.43807 13.2918 7.21998 14.6674 7.15805C16.0456 7.09612 16.4871 7.07997 19.9919 7.07997H19.9973C23.5048 7.07997 23.9436 7.09612 25.3219 7.15805C26.6974 7.21998 27.6369 7.43807 28.4606 7.75848C29.3113 8.08697 30.03 8.52854 30.7487 9.24744C31.4675 9.96634 31.9089 10.6879 32.24 11.5361C32.5577 12.3573 32.7757 13.297 32.8403 14.6729C32.9022 16.0514 32.9184 16.493 32.9184 20.0013C32.9184 23.5097 32.9022 23.9513 32.8403 25.3298Z" fill="url(#paint4_radial_14597_14554)"/>
<path d="M37.4677 10.0848C37.3573 8.67932 37.1177 7.73425 36.6251 6.73533C36.2213 5.9168 35.7745 5.30829 35.1257 4.68363C33.9682 3.57701 32.5523 2.90388 30.8645 2.66155C30.0461 2.54308 29.8846 2.50808 25.7014 2.5H20.0054C12.6996 2.5 10.5622 2.50808 10.1477 2.54308C8.64828 2.66694 7.7142 2.90388 6.69935 3.41007C5.91601 3.80048 5.29688 4.25013 4.68851 4.88288C3.57676 6.03527 2.90378 7.45153 2.66151 9.13974C2.54307 9.95827 2.50808 10.1252 2.5 14.304C2.5 15.6987 2.5 17.5323 2.5 19.9933C2.5 27.2954 2.50808 29.4305 2.54307 29.8452C2.66421 31.3045 2.89302 32.2227 3.37756 33.227C4.30357 35.1494 6.07214 36.5926 8.15567 37.1311C8.8771 37.3169 9.6739 37.4192 10.6968 37.4677C11.1302 37.4865 15.5476 37.5 19.9677 37.5C24.3878 37.5 28.8079 37.4946 29.2305 37.4731C30.4149 37.4165 31.1041 37.325 31.8632 37.1284C33.9602 36.5872 35.6964 35.1656 36.6413 33.2162C37.1151 32.2361 37.3573 31.283 37.4677 29.899C37.4919 29.5975 37.5 24.7886 37.5 19.9879C37.5 15.1871 37.4892 10.3864 37.465 10.0848H37.4677ZM32.8403 25.3298C32.7757 26.7057 32.5577 27.6454 32.24 28.4666C31.9089 29.3174 31.4675 30.0363 30.7487 30.7552C30.03 31.4741 29.3113 31.9157 28.4606 32.2469C27.6396 32.5673 26.6974 32.7854 25.3219 32.8473C23.9436 32.9093 23.5048 32.9254 19.9946 32.9254C16.4844 32.9254 16.0456 32.9093 14.6674 32.8473C13.2918 32.7854 12.3523 32.5673 11.5313 32.2469C10.6807 31.9157 9.96193 31.4741 9.24319 30.7552C8.52446 30.0363 8.08299 29.3148 7.75188 28.4666C7.43155 27.6454 7.2162 26.7057 7.15159 25.3298C7.08968 23.9513 7.07353 23.5124 7.07353 20.0013C7.07353 16.4903 7.08968 16.0514 7.15159 14.6729C7.21351 13.297 7.43155 12.3573 7.75188 11.5361C8.08299 10.6852 8.52446 9.96634 9.24319 9.24744C9.96193 8.52854 10.6834 8.08697 11.5313 7.75848C12.3523 7.43807 13.2918 7.21998 14.6674 7.15805C16.0456 7.09612 16.4871 7.07997 19.9919 7.07997H19.9973C23.5048 7.07997 23.9436 7.09612 25.3219 7.15805C26.6974 7.21998 27.6369 7.43807 28.4606 7.75848C29.3113 8.08697 30.03 8.52854 30.7487 9.24744C31.4675 9.96634 31.9089 10.6879 32.24 11.5361C32.5577 12.3573 32.7757 13.297 32.8403 14.6729C32.9022 16.0514 32.9184 16.493 32.9184 20.0013C32.9184 23.5097 32.9022 23.9513 32.8403 25.3298Z" fill="url(#paint5_radial_14597_14554)"/>
<defs>
<radialGradient id="paint0_radial_14597_14554" cx="0" cy="0" r="1" gradientUnits="userSpaceOnUse" gradientTransform="translate(11.7969 40.1957) rotate(-90) scale(34.6876 32.2622)">
<stop stop-color="#FFDD55"/>
<stop offset="0.1" stop-color="#FFDD55"/>
<stop offset="0.5" stop-color="#FF543E"/>
<stop offset="1" stop-color="#C837AB"/>
</radialGradient>
<radialGradient id="paint1_radial_14597_14554" cx="0" cy="0" r="1" gradientTransform="matrix(3.04338 15.2039 -62.6697 12.5517 -3.36269 5.02134)" gradientUnits="userSpaceOnUse">
<stop stop-color="#3771C8"/>
<stop offset="0.128" stop-color="#3771C8"/>
<stop offset="1" stop-color="#6600FF" stop-opacity="0"/>
</radialGradient>
<radialGradient id="paint2_radial_14597_14554" cx="0" cy="0" r="1" gradientUnits="userSpaceOnUse" gradientTransform="translate(11.7969 40.1957) rotate(-90) scale(34.6876 32.2622)">
<stop stop-color="#FFDD55"/>
<stop offset="0.1" stop-color="#FFDD55"/>
<stop offset="0.5" stop-color="#FF543E"/>
<stop offset="1" stop-color="#C837AB"/>
</radialGradient>
<radialGradient id="paint3_radial_14597_14554" cx="0" cy="0" r="1" gradientTransform="matrix(3.04338 15.2039 -62.6697 12.5517 -3.36269 5.02134)" gradientUnits="userSpaceOnUse">
<stop stop-color="#3771C8"/>
<stop offset="0.128" stop-color="#3771C8"/>
<stop offset="1" stop-color="#6600FF" stop-opacity="0"/>
</radialGradient>
<radialGradient id="paint4_radial_14597_14554" cx="0" cy="0" r="1" gradientUnits="userSpaceOnUse" gradientTransform="translate(11.7969 40.1957) rotate(-90) scale(34.6876 32.2622)">
<stop stop-color="#FFDD55"/>
<stop offset="0.1" stop-color="#FFDD55"/>
<stop offset="0.5" stop-color="#FF543E"/>
<stop offset="1" stop-color="#C837AB"/>
</radialGradient>
<radialGradient id="paint5_radial_14597_14554" cx="0" cy="0" r="1" gradientTransform="matrix(3.04338 15.2039 -62.6697 12.5517 -3.36269 5.02134)" gradientUnits="userSpaceOnUse">
<stop stop-color="#3771C8"/>
<stop offset="0.128" stop-color="#3771C8"/>
<stop offset="1" stop-color="#6600FF" stop-opacity="0"/>
</radialGradient>
</defs>
</svg>
