<svg width="40" height="40" viewBox="0 0 40 40" fill="none" xmlns="http://www.w3.org/2000/svg">
<path d="M6.28043 23.7061C6.28043 25.0425 6.57376 26.0685 6.95716 26.6893C7.45983 27.5023 8.20959 27.8468 8.97395 27.8468C9.95983 27.8468 10.8617 27.6021 12.5998 25.1983C13.9922 23.2715 15.6329 20.5671 16.7369 18.8716L18.6064 15.9991C19.9051 14.0043 21.4082 11.7866 23.1317 10.2835C24.5387 9.0566 26.0565 8.375 27.584 8.375C30.1485 8.375 32.5913 9.86112 34.4608 12.6484C36.5068 15.7009 37.5 19.5459 37.5 23.5138C37.5 25.8726 37.0351 27.6058 36.2439 28.975C35.4795 30.2993 33.9898 31.6223 31.4837 31.6223V27.8468C33.6295 27.8468 34.165 25.875 34.165 23.6184C34.165 20.4028 33.4153 16.8341 31.7636 14.2842C30.5915 12.4755 29.0725 11.3704 27.4014 11.3704C25.594 11.3704 24.1395 12.7336 22.5049 15.1642C21.6358 16.4556 20.7437 18.0293 19.742 19.8051L18.6392 21.7586C16.4241 25.6863 15.863 26.5809 14.7554 28.0573C12.814 30.6425 11.1563 31.6223 8.97395 31.6223C6.3851 31.6223 4.74805 30.5013 3.73418 28.812C2.90652 27.4354 2.5 25.6291 2.5 23.571L6.28043 23.7061Z" fill="#0081FB"/>
<path d="M5.48096 12.9149C7.21416 10.2433 9.71538 8.375 12.5842 8.375C14.2456 8.375 15.8972 8.86672 17.6219 10.275C19.5085 11.8146 21.5192 14.3499 24.0277 18.5284L24.9272 20.0279C27.0985 23.6452 28.3339 25.5062 29.0569 26.3838C29.9868 27.5108 30.638 27.8468 31.4839 27.8468C33.6297 27.8468 34.1652 25.875 34.1652 23.6184L37.5002 23.5138C37.5002 25.8726 37.0352 27.6058 36.2441 28.975C35.4797 30.2993 33.99 31.6223 31.4839 31.6223C29.9259 31.6223 28.5457 31.284 27.0194 29.8441C25.8461 28.7389 24.4744 26.7757 23.4191 25.0108L20.2801 19.7674C18.7052 17.136 17.2604 15.1739 16.4242 14.2854C15.5248 13.33 14.3685 12.1761 12.5233 12.1761C11.0299 12.1761 9.76163 13.2241 8.70029 14.827L5.48096 12.9149Z" fill="url(#paint0_linear_14597_14550)"/>
<path d="M12.5231 12.1761C11.0297 12.1761 9.76144 13.2241 8.7001 14.827C7.19937 17.0921 6.28043 20.466 6.28043 23.7061C6.28043 25.0425 6.57376 26.0685 6.95716 26.6893L3.73418 28.812C2.90652 27.4354 2.5 25.6291 2.5 23.571C2.5 19.8283 3.52726 15.9273 5.48077 12.9149C7.21397 10.2433 9.71519 8.375 12.584 8.375L12.5231 12.1761Z" fill="url(#paint1_linear_14597_14550)"/>
<defs>
<linearGradient id="paint0_linear_14597_14550" x1="9.92473" y1="22.6155" x2="34.024" y2="23.8326" gradientUnits="userSpaceOnUse">
<stop stop-color="#0064E1"/>
<stop offset="0.4" stop-color="#0064E1"/>
<stop offset="0.83" stop-color="#0073EE"/>
<stop offset="1" stop-color="#0082FB"/>
</linearGradient>
<linearGradient id="paint1_linear_14597_14550" x1="7.97712" y1="25.2932" x2="7.97712" y2="16.4081" gradientUnits="userSpaceOnUse">
<stop stop-color="#0082FB"/>
<stop offset="1" stop-color="#0064E0"/>
</linearGradient>
</defs>
</svg>
