<svg width="22" height="22" viewBox="0 0 22 22" fill="none" xmlns="http://www.w3.org/2000/svg">
<path d="M11 20.625C16.3157 20.625 20.625 16.3157 20.625 11C20.625 5.68426 16.3157 1.375 11 1.375C5.68426 1.375 1.375 5.68426 1.375 11C1.375 14.9051 3.7006 18.267 7.04239 19.7763C7.04688 19.6722 7.05192 19.5767 7.05625 19.4948C7.06215 19.3832 7.06671 19.2969 7.06671 19.2483C7.06671 18.9591 7.26337 17.5246 7.26337 17.5246L8.4665 12.5849C8.2814 12.2841 8.14258 11.6478 8.14258 11.162C8.14258 8.91766 9.39198 8.43178 10.1555 8.43178C11.1273 8.43178 11.3471 9.48452 11.3471 10.2596C11.3471 10.6696 11.1344 11.3113 10.9155 11.9717C10.6836 12.6716 10.4447 13.3925 10.4447 13.8806C10.4447 14.8292 11.3818 15.3035 12.0296 15.3035C13.7417 15.3035 15.3151 13.1517 15.3151 11C15.3151 8.84825 14.3086 6.24534 11.0116 6.24534C7.71454 6.24534 6.23378 8.7557 6.23378 10.6761C6.23378 11.9717 6.71965 12.9204 6.96259 13.0823C7.032 13.144 7.15 13.3345 7.06671 13.6029C6.98341 13.8713 6.83148 14.4705 6.76593 14.7366C6.75821 14.7983 6.68495 14.9032 6.45358 14.8292C6.16436 14.7366 4.32497 13.5798 4.32497 10.6761C4.32497 7.77238 6.60397 4.39437 11.0116 4.39437C15.4192 4.39437 17.675 7.35591 17.675 11C17.675 14.6441 14.7251 16.9693 12.4808 16.9693C10.6853 16.9693 9.98197 16.1673 9.85472 15.7662L9.17218 18.3691C9.01102 18.801 8.71037 19.5771 8.33963 20.2526C9.18456 20.4951 10.0771 20.625 11 20.625Z" fill="#BB0F23"/>
</svg>
