<svg width="40" height="40" viewBox="0 0 40 40" fill="none" xmlns="http://www.w3.org/2000/svg">
<path d="M10.5637 24.7414C10.759 23.124 11.4224 22.2185 12.6724 21.2902C14.461 20.033 16.6952 20.7441 16.6952 20.7441V16.5252C17.2383 16.5113 17.7817 16.5435 18.3189 16.6214V22.0508C18.3189 22.0508 16.0854 21.3396 14.2968 22.5975C13.0475 23.5251 12.3828 24.4313 12.1881 26.0487C12.182 26.9269 12.3468 28.075 13.1058 29.0676C12.9182 28.9714 12.7269 28.8618 12.532 28.7387C10.8601 27.616 10.5556 25.9317 10.5637 24.7414ZM27.5439 8.72434C26.3136 7.37609 25.8483 6.01485 25.6801 5.05859H27.2279C27.2279 5.05859 26.9193 7.56591 29.1684 10.0316L29.1996 10.0648C28.5934 9.68348 28.0375 9.23341 27.5439 8.72434ZM35.0001 12.5467V17.8669C35.0001 17.8669 33.025 17.7896 31.5633 17.4177C29.5224 16.8977 28.2107 16.1 28.2107 16.1C28.2107 16.1 27.3045 15.5312 27.2313 15.4916V26.4777C27.2313 27.0895 27.0637 28.6171 26.553 29.8913C25.8863 31.558 24.8574 32.6521 24.6681 32.8757C24.6681 32.8757 23.4167 34.3546 21.209 35.3506C19.219 36.249 17.4718 36.2262 16.9495 36.2489C16.9495 36.2489 13.9292 36.3686 11.2114 34.6023C10.6237 34.213 10.0751 33.7721 9.57275 33.2853L9.58632 33.295C12.3048 35.0613 15.3244 34.9417 15.3244 34.9417C15.8473 34.9189 17.5945 34.9417 19.5839 34.0433C21.7896 33.0474 23.043 31.5684 23.043 31.5684C23.2302 31.3448 24.2639 30.2508 24.9279 28.5833C25.4373 27.3098 25.6062 25.7815 25.6062 25.1698V14.1849C25.6794 14.2252 26.5849 14.794 26.5849 14.794C26.5849 14.794 27.8973 15.5923 29.9382 16.1117C31.4005 16.4836 33.3749 16.5609 33.3749 16.5609V12.392C34.0505 12.5435 34.6263 12.5845 35.0001 12.5467Z" fill="#EE1D52"/>
<path d="M33.3756 12.392V16.5596C33.3756 16.5596 31.4012 16.4823 29.9388 16.1104C27.898 15.5904 26.5855 14.7927 26.5855 14.7927C26.5855 14.7927 25.68 14.2239 25.6068 14.1836V25.1711C25.6068 25.7828 25.4393 27.3111 24.9285 28.5846C24.2618 30.2521 23.2329 31.3461 23.0436 31.5697C23.0436 31.5697 21.7916 33.0487 19.5845 34.0446C17.5952 34.943 15.848 34.9202 15.325 34.943C15.325 34.943 12.3054 35.0626 9.58695 33.2963L9.57339 33.2866C9.28638 33.0087 9.01621 32.7152 8.76422 32.4077C7.89673 31.35 7.36497 30.0993 7.23135 29.7424C7.23112 29.7409 7.23112 29.7394 7.23135 29.7379C7.01634 29.1177 6.56462 27.6284 6.62634 26.1859C6.73554 23.6408 7.63085 22.0787 7.86756 21.6874C8.49448 20.6202 9.30986 19.6654 10.2774 18.8654C11.1312 18.1751 12.099 17.6259 13.141 17.2403C14.2675 16.7875 15.4738 16.5448 16.6951 16.5252V20.7441C16.6951 20.7441 14.4609 20.0356 12.673 21.2902C11.423 22.2185 10.7597 23.124 10.5643 24.7414C10.5562 25.9317 10.8607 27.616 12.5313 28.7393C12.7262 28.8629 12.9174 28.9725 13.1051 29.0683C13.3969 29.4476 13.7522 29.7782 14.1564 30.0466C15.7883 31.0796 17.1557 31.1518 18.9042 30.4809C20.0701 30.0323 20.9478 29.0215 21.3548 27.9014C21.6105 27.2019 21.6071 26.4979 21.6071 25.7698V5.05859H25.6766C25.8449 6.01485 26.3101 7.37609 27.5405 8.72434C28.0341 9.23341 28.59 9.68348 29.1961 10.0648C29.3752 10.2501 30.2909 11.166 31.4663 11.7283C32.0741 12.019 32.7147 12.2417 33.3756 12.392Z" fill="black"/>
<path d="M5.61182 28.4453V28.4486L5.7128 28.7222C5.7012 28.6904 5.66367 28.5935 5.61182 28.4453Z" fill="#69C9D0"/>
<path d="M13.141 17.2388C12.099 17.6245 11.1312 18.1737 10.2774 18.864C9.30954 19.6658 8.49436 20.6226 7.86822 21.6918C7.63151 22.0818 6.73621 23.6453 6.62701 26.1903C6.56529 27.6328 7.01701 29.1221 7.23202 29.7423C7.23178 29.7438 7.23178 29.7453 7.23202 29.7468C7.36767 30.1005 7.89739 31.3512 8.76488 32.4121C9.01687 32.7196 9.28704 33.0131 9.57405 33.291C8.65446 32.6814 7.83433 31.9445 7.14045 31.1042C6.28042 30.0556 5.75002 28.8179 5.61165 28.4525C5.61149 28.4499 5.61149 28.4473 5.61165 28.4447V28.4402C5.39597 27.8207 4.94289 26.3307 5.00597 24.8862C5.11517 22.3412 6.01047 20.7791 6.24718 20.3878C6.87313 19.3184 7.68834 18.3616 8.65636 17.56C9.51 16.8694 10.4778 16.3202 11.52 15.9348C12.17 15.6763 12.8472 15.4856 13.5398 15.366C14.5837 15.1913 15.6497 15.1762 16.6985 15.3211V16.5237C15.476 16.5429 14.2685 16.7856 13.141 17.2388Z" fill="#69C9D0"/>
<path d="M25.6797 5.05794H21.6102V25.7698C21.6102 26.4979 21.6102 27.2 21.3579 27.9014C20.9468 29.0208 20.0726 30.0317 18.9073 30.4802C17.1581 31.1537 15.7907 31.0789 14.1595 30.046C13.7545 29.7788 13.3984 29.4493 13.1055 29.0709C14.4952 29.7814 15.7392 29.7691 17.2802 29.1762C18.4447 28.7276 19.3204 27.7168 19.73 26.5967C19.9864 25.8972 19.983 25.1932 19.983 24.4658V3.75H25.6024C25.6024 3.75 25.5393 4.26486 25.6797 5.05794ZM33.3753 11.2388V12.3914C32.7156 12.2408 32.0761 12.0181 31.4694 11.7277C30.2939 11.1653 29.3783 10.2494 29.1992 10.0641C29.407 10.1949 29.6226 10.3138 29.8449 10.4204C31.274 11.1042 32.6814 11.3084 33.3753 11.2388Z" fill="#69C9D0"/>
</svg>
