<svg width="40" height="40" viewBox="0 0 40 40" fill="none" xmlns="http://www.w3.org/2000/svg">
<mask id="mask0_14597_14630" style="mask-type:luminance" maskUnits="userSpaceOnUse" x="2" y="2" width="36" height="36">
<path d="M38 2H2V38H38V2Z" fill="white"/>
</mask>
<g mask="url(#mask0_14597_14630)">
<path fill-rule="evenodd" clip-rule="evenodd" d="M26.6939 36.9771C26.7421 37.5343 26.4068 37.9973 25.9912 37.9973H15.4843C15.0788 37.9973 14.7615 37.572 14.7615 37.0283V17.389C14.7615 16.8856 14.4764 16.463 14.101 16.3849C11.8884 15.9246 4.78473 13.5935 2.04005 3.28129C1.87943 2.68102 2.21674 2.01615 2.68857 2H10.6395C17.2091 2.38493 22.1382 8.01884 24.1219 15.6743L24.134 15.6581C25.7844 22.0377 26.5072 33.5047 26.6939 36.9771Z" fill="#0C70F2"/>
<path fill-rule="evenodd" clip-rule="evenodd" d="M37.9637 3.1144C35.3756 13.0956 30.0549 15.4105 26.979 16.2773C26.6497 16.3445 26.3365 16.0808 26.2502 15.6554C25.2703 11.0094 23.907 8.46299 22.1382 6.26918C21.8389 5.9004 21.851 5.24899 22.1964 4.95559C24.2664 3.11978 26.8224 2.01077 30.0128 2.00538V2H37.3614C37.795 2 38.1103 2.57335 37.9637 3.1144Z" fill="#0C70F2"/>
</g>
</svg>
