<svg width="145" height="25" viewBox="0 0 145 25" fill="none" xmlns="http://www.w3.org/2000/svg">
<path d="M24.5 8.74533L24.27 8.30139L24.5 8.74533ZM144.987 8.85717C145.049 8.58808 144.881 8.31966 144.612 8.25763L140.227 7.24678C139.958 7.18475 139.69 7.3526 139.628 7.62169C139.566 7.89077 139.734 8.15919 140.003 8.22123L143.9 9.11976L143.002 13.0175C142.94 13.2866 143.108 13.555 143.377 13.6171C143.646 13.6791 143.914 13.5112 143.976 13.2422L144.987 8.85717ZM0 24C0.359489 24 0.724855 23.9727 1.09492 23.9211L0.956855 22.9307C0.62805 22.9765 0.308984 23 0 23V24ZM3.18946 23.4042C3.83235 23.1841 4.48782 22.9092 5.15185 22.5906L4.71921 21.689C4.08372 21.9939 3.46482 22.2529 2.86549 22.4581L3.18946 23.4042ZM7.00822 21.6054C7.59695 21.2657 8.19148 20.8992 8.78934 20.5122L8.24595 19.6727C7.65996 20.052 7.0801 20.4094 6.50848 20.7392L7.00822 21.6054ZM10.5164 19.3481C11.0781 18.9559 11.6414 18.5507 12.2044 18.1376L11.6128 17.3313C11.0548 17.7408 10.498 18.1413 9.94392 18.5281L10.5164 19.3481ZM13.8656 16.8981C14.4163 16.4815 14.9654 16.0616 15.5105 15.6435L14.902 14.85C14.3574 15.2677 13.8104 15.686 13.2623 16.1005L13.8656 16.8981ZM17.1488 14.3866C17.7024 13.9629 18.2499 13.546 18.7899 13.1407L18.1896 12.3409C17.6461 12.7489 17.0957 13.1679 16.541 13.5925L17.1488 14.3866ZM20.4439 11.9228C21.0175 11.5101 21.5788 11.1185 22.1254 10.7542L21.5709 9.92207C21.0121 10.2944 20.4409 10.6931 19.8599 11.111L20.4439 11.9228ZM23.8501 9.67363C24.1502 9.4995 24.4437 9.33766 24.73 9.18927L24.27 8.30139C23.9678 8.45797 23.6604 8.6276 23.3483 8.80868L23.8501 9.67363ZM24.73 9.18927C25.0366 9.03039 25.3413 8.87433 25.644 8.72105L25.1923 7.82889C24.8867 7.98361 24.5793 8.1411 24.27 8.30139L24.73 9.18927ZM27.4376 7.83444C28.0279 7.54986 28.6107 7.27614 29.1862 7.01305L28.7704 6.10359C28.1886 6.36958 27.5996 6.64619 27.0033 6.93366L27.4376 7.83444ZM30.9717 6.22049C31.5946 5.95243 32.2087 5.69718 32.8141 5.45439L32.4419 4.52623C31.8285 4.7722 31.2068 5.03066 30.5764 5.30193L30.9717 6.22049ZM34.6048 4.76308C35.2365 4.52884 35.8585 4.30857 36.4711 4.10185L36.1514 3.15434C35.5292 3.3643 34.8978 3.58788 34.2571 3.82547L34.6048 4.76308ZM38.3413 3.50369C38.9666 3.31493 39.5818 3.14072 40.1872 2.98055L39.9315 2.01381C39.3146 2.17699 38.6883 2.35435 38.0523 2.54636L38.3413 3.50369ZM42.1226 2.50845C42.7566 2.36717 43.3795 2.24177 43.9919 2.13161L43.8148 1.14741C43.1886 1.26006 42.5522 1.38819 41.9051 1.53239L42.1226 2.50845ZM45.9572 1.82482C46.6041 1.73959 47.2388 1.67185 47.862 1.62076L47.7803 0.624104C47.1405 0.676556 46.4895 0.746053 45.8266 0.833387L45.9572 1.82482ZM49.832 1.5127C50.4821 1.49506 51.1193 1.49596 51.7444 1.51437L51.7738 0.514799C51.1297 0.495838 50.4736 0.494919 49.8049 0.51307L49.832 1.5127ZM53.71 1.63218C54.3603 1.69136 54.9975 1.76977 55.6225 1.86608L55.7748 0.877749C55.1294 0.778289 54.4716 0.697359 53.8007 0.636294L53.71 1.63218ZM57.5376 2.224C58.1765 2.36463 58.803 2.52401 59.4181 2.7006L59.6941 1.73943C59.0592 1.55717 58.4124 1.39261 57.7526 1.24737L57.5376 2.224ZM61.261 3.29124C61.8777 3.50959 62.4836 3.74489 63.0798 3.99545L63.4672 3.07355C62.8541 2.81588 62.2303 2.5736 61.5947 2.34857L61.261 3.29124ZM64.8513 4.79629C65.4377 5.07981 66.0154 5.37727 66.5859 5.6869L67.0629 4.808C66.4797 4.49144 65.888 4.18679 65.2866 3.89601L64.8513 4.79629ZM68.2832 6.65429C68.8431 6.98816 69.3969 7.33247 69.946 7.68542L70.4867 6.84423C69.9292 6.48586 69.3659 6.13559 68.7954 5.7954L68.2832 6.65429ZM71.5805 8.7685C72.1208 9.13646 72.6576 9.51113 73.1922 9.89075L73.7712 9.07537C73.2322 8.6927 72.69 8.31424 72.1435 7.94198L71.5805 8.7685ZM74.7895 11.0413C75.3196 11.4278 75.8487 11.8171 76.3784 12.2077L76.9719 11.4028C76.4418 11.0119 75.911 10.6213 75.3786 10.2332L74.7895 11.0413ZM77.968 13.3795C78.4987 13.7697 79.0312 14.1592 79.5666 14.546L80.1523 13.7354C79.6199 13.3508 79.0898 12.9631 78.5604 12.5738L77.968 13.3795ZM81.1806 15.6949C81.7219 16.0737 82.2675 16.448 82.8186 16.8159L83.3738 15.9842C82.8297 15.6209 82.2901 15.2508 81.7539 14.8756L81.1806 15.6949ZM84.4881 17.8974C85.0487 18.2489 85.616 18.5922 86.1915 18.9255L86.6927 18.0602C86.1283 17.7333 85.5709 17.396 85.0193 17.0502L84.4881 17.8974ZM87.9371 19.8902C88.5241 20.1986 89.1202 20.4954 89.7268 20.7786L90.1499 19.8726C89.5584 19.5963 88.9762 19.3065 88.4022 19.005L87.9371 19.8902ZM91.5548 21.5764C92.1701 21.826 92.7965 22.0608 93.4351 22.2793L93.7588 21.3331C93.1384 21.1209 92.5294 20.8926 91.9307 20.6497L91.5548 21.5764ZM95.3405 22.8702C95.9757 23.0471 96.6231 23.2073 97.2835 23.3494L97.4938 22.3718C96.8532 22.2339 96.2251 22.0785 95.6087 21.9069L95.3405 22.8702ZM99.2597 23.7129C99.9049 23.8117 100.562 23.8933 101.233 23.9563L101.326 22.9607C100.675 22.8995 100.037 22.8203 99.4111 22.7245L99.2597 23.7129ZM103.253 24.0875C103.898 24.111 104.555 24.1176 105.224 24.1065L105.207 23.1066C104.555 23.1175 103.917 23.111 103.29 23.0882L103.253 24.0875ZM107.255 24.0196C107.893 23.976 108.543 23.9166 109.203 23.8406L109.089 22.8472C108.443 22.9214 107.809 22.9794 107.187 23.0219L107.255 24.0196ZM111.212 23.5639C111.844 23.4625 112.487 23.3465 113.14 23.2151L112.943 22.2348C112.302 22.3636 111.673 22.4773 111.054 22.5764L111.212 23.5639ZM115.097 22.783C115.73 22.631 116.373 22.4651 117.026 22.2847L116.759 21.3208C116.117 21.4982 115.486 21.6613 114.864 21.8106L115.097 22.783ZM118.912 21.7315C119.55 21.5338 120.197 21.3228 120.855 21.0979L120.531 20.1517C119.883 20.3736 119.245 20.5816 118.616 20.7763L118.912 21.7315ZM122.675 20.4482C123.284 20.2222 123.902 19.9845 124.527 19.735L124.157 18.8062C123.539 19.0528 122.929 19.2875 122.327 19.5107L122.675 20.4482ZM126.418 18.9556C126.996 18.7093 127.582 18.453 128.175 18.1867L127.765 17.2745C127.178 17.5382 126.599 17.7918 126.026 18.0355L126.418 18.9556ZM129.975 17.3572C130.582 17.0704 131.196 16.7734 131.818 16.4658L131.375 15.5695C130.758 15.8744 130.149 16.1689 129.548 16.4529L129.975 17.3572ZM133.537 15.5983C134.109 15.3036 134.688 15.0001 135.273 14.6878L134.802 13.8057C134.221 14.1157 133.647 14.4168 133.079 14.7092L133.537 15.5983ZM137.046 13.724C137.621 13.4063 138.202 13.0801 138.789 12.7455L138.294 11.8768C137.711 12.2093 137.134 12.5333 136.563 12.8488L137.046 13.724ZM140.456 11.7811C141.017 11.4521 141.583 11.1155 142.155 10.7711L141.639 9.9145C141.071 10.2569 140.508 10.5915 139.95 10.9186L140.456 11.7811ZM143.887 9.7147C144.178 9.5347 144.471 9.35273 144.765 9.16879L144.235 8.32092C143.942 8.5039 143.651 8.6849 143.361 8.86393L143.887 9.7147Z" fill="#0C6CFB"/>
</svg>

