<svg width="143" height="39" viewBox="0 0 143 39" fill="none" xmlns="http://www.w3.org/2000/svg">
<path d="M55 4.09205L55.2684 3.67022L55 4.09205ZM142.354 7.85355C142.549 7.65829 142.549 7.34171 142.354 7.14645L139.172 3.96447C138.976 3.7692 138.66 3.7692 138.464 3.96447C138.269 4.15973 138.269 4.47631 138.464 4.67157L141.293 7.5L138.464 10.3284C138.269 10.5237 138.269 10.8403 138.464 11.0355C138.66 11.2308 138.976 11.2308 139.172 11.0355L142.354 7.85355ZM1.08034 4.58555C1.38964 4.5352 1.70669 4.48441 2.03112 4.43327L1.87542 3.44547C1.54938 3.49686 1.23066 3.54792 0.919662 3.59855L1.08034 4.58555ZM3.96402 4.1378C4.58432 4.04579 5.22525 3.9533 5.88467 3.86089L5.74589 2.87057C5.08386 2.96334 4.44027 3.05621 3.81729 3.14862L3.96402 4.1378ZM7.8124 3.59818C8.44319 3.5146 9.08759 3.43151 9.74397 3.34934L9.61975 2.35709C8.96098 2.43956 8.3142 2.52295 7.68104 2.60684L7.8124 3.59818ZM11.6778 3.11418C12.3143 3.03906 12.9599 2.9651 13.6133 2.89263L13.5031 1.89872C12.8473 1.97145 12.1994 2.04568 11.5606 2.12107L11.6778 3.11418ZM15.5501 2.68479C16.1905 2.61837 16.8369 2.55365 17.4881 2.49091L17.3922 1.49552C16.7386 1.5585 16.0897 1.62346 15.4469 1.69012L15.5501 2.68479ZM19.4274 2.31142C20.0711 2.2543 20.7183 2.19936 21.3677 2.14688L21.2872 1.15013C20.635 1.20282 19.9853 1.25798 19.339 1.31533L19.4274 2.31142ZM23.3092 1.99804C23.9559 1.95119 24.6037 1.90703 25.2517 1.86583L25.1882 0.867841C24.5372 0.909234 23.8865 0.953596 23.237 1.00065L23.3092 1.99804ZM27.195 1.75137C27.8443 1.71624 28.4926 1.68437 29.1389 1.65603L29.0951 0.65699C28.4453 0.685484 27.7936 0.717523 27.1409 0.752828L27.195 1.75137ZM31.0833 1.58146C31.7352 1.56015 32.3837 1.54278 33.0278 1.52964L33.0074 0.529848C32.3591 0.543076 31.7064 0.560556 31.0506 0.581991L31.0833 1.58146ZM34.9722 1.503C35.6265 1.49859 36.2748 1.49899 36.9159 1.50453L36.9245 0.504563C36.2781 0.498984 35.6246 0.49858 34.9655 0.503025L34.9722 1.503ZM38.8581 1.53792C39.5146 1.5551 40.1616 1.57829 40.7976 1.60786L40.844 0.608939C40.2009 0.579038 39.5471 0.555606 38.8842 0.538261L38.8581 1.53792ZM42.7323 1.72033C43.3897 1.76667 44.0324 1.82079 44.6588 1.88311L44.7578 0.888023C44.1212 0.824678 43.4688 0.769769 42.8027 0.722808L42.7323 1.72033ZM46.5795 2.10759C47.2401 2.19725 47.8775 2.29773 48.4891 2.40956L48.6689 1.42587C48.0408 1.31101 47.3882 1.20819 46.714 1.11667L46.5795 2.10759ZM50.3636 2.80894C51.0168 2.97038 51.629 3.1481 52.1967 3.34279L52.5211 2.39687C51.9218 2.19134 51.281 2.00558 50.6036 1.83815L50.3636 2.80894ZM53.9275 4.05978C54.2157 4.20491 54.4839 4.35629 54.7316 4.51388L55.2684 3.67022C54.9898 3.4929 54.6922 3.32522 54.3773 3.16662L53.9275 4.05978ZM54.7316 4.51388C55.0085 4.6901 55.2802 4.86342 55.547 5.03405L56.0859 4.19166C55.8183 4.02053 55.5459 3.84678 55.2684 3.67022L54.7316 4.51388ZM57.1659 6.0781C57.7245 6.44192 58.258 6.79398 58.7678 7.13679L59.3258 6.30696C58.8111 5.96084 58.2734 5.60603 57.7117 5.24017L57.1659 6.0781ZM60.3457 8.22346C60.8897 8.60858 61.4019 8.98406 61.8846 9.35402L62.4929 8.56031C61.9985 8.18142 61.476 7.79841 60.9236 7.4073L60.3457 8.22346ZM63.3594 10.5479C63.8571 10.9765 64.3165 11.403 64.7413 11.834L65.4535 11.132C65.0072 10.6792 64.5276 10.2342 64.0119 9.79015L63.3594 10.5479ZM65.9854 13.2336C66.376 13.7255 66.7307 14.2322 67.0541 14.7625L67.9079 14.2418C67.5625 13.6754 67.1841 13.135 66.7686 12.6117L65.9854 13.2336ZM67.9257 16.4122C68.1754 16.9616 68.4023 17.5411 68.6098 18.1582L69.5577 17.8395C69.3402 17.1928 69.101 16.5813 68.8361 15.9985L67.9257 16.4122ZM69.138 19.9725C69.2854 20.5584 69.421 21.1762 69.5469 21.8303L70.5289 21.6413C70.3999 20.9711 70.2603 20.3349 70.1078 19.7286L69.138 19.9725ZM69.8682 23.7112C69.9151 24.0199 69.9605 24.3358 70.0046 24.6594L70.9954 24.5242C70.9507 24.196 70.9045 23.8751 70.8569 23.5612L69.8682 23.7112ZM70.0046 24.6594C70.0511 25.0006 70.0882 25.3345 70.1162 25.6611L71.1126 25.5757C71.0831 25.232 71.0441 24.8815 70.9954 24.5242L70.0046 24.6594ZM70.1737 27.6681C70.1507 28.3683 70.0803 29.0279 69.9668 29.6476L70.9505 29.8277C71.0734 29.1564 71.1486 28.4475 71.1732 27.701L70.1737 27.6681ZM69.4428 31.5467C69.2016 32.1808 68.9057 32.7614 68.5614 33.2902L69.3994 33.8359C69.7837 33.2457 70.1116 32.6011 70.3775 31.9022L69.4428 31.5467ZM67.3203 34.7898C66.8516 35.2395 66.333 35.6344 65.7704 35.975L66.2884 36.8304C66.9112 36.4533 67.4887 36.014 68.0127 35.5114L67.3203 34.7898ZM63.9964 36.8203C63.3911 37.0413 62.7519 37.2146 62.0841 37.3401L62.2689 38.3229C62.9869 38.1879 63.6793 38.0007 64.3394 37.7596L63.9964 36.8203ZM60.1036 37.5686C59.4523 37.6 58.7824 37.5917 58.0983 37.5442L58.029 38.5418C58.75 38.5919 59.4592 38.6008 60.1517 38.5675L60.1036 37.5686ZM56.0995 37.2999C55.771 37.2429 55.4405 37.1775 55.1085 37.1037L54.8915 38.0799C55.2386 38.157 55.5845 38.2255 55.9286 38.2852L56.0995 37.2999ZM55.1085 37.1037C54.8279 37.0414 54.539 36.9458 54.2438 36.8174L53.845 37.7345C54.1922 37.8855 54.542 38.0022 54.8915 38.0799L55.1085 37.1037ZM52.6314 35.8308C52.1546 35.4572 51.6798 35.0132 51.2165 34.5072L50.4789 35.1825C50.9748 35.724 51.4896 36.2064 52.0145 36.6178L52.6314 35.8308ZM49.9916 32.9829C49.6221 32.4621 49.2688 31.9037 48.9376 31.3138L48.0656 31.8032C48.4134 32.4229 48.7855 33.0111 49.176 33.5616L49.9916 32.9829ZM48.0585 29.5512C47.7966 28.9564 47.5587 28.3402 47.3493 27.7077L46.4 28.0221C46.6195 28.685 46.8688 29.3307 47.1432 29.9541L48.0585 29.5512ZM46.8201 25.8064C46.6758 25.1686 46.5623 24.5203 46.4836 23.8662L45.4908 23.9856C45.5737 24.6751 45.6932 25.3571 45.8448 26.0271L46.8201 25.8064ZM46.356 21.9045C46.3503 21.2518 46.3824 20.5978 46.4557 19.9468L45.462 19.8348C45.3839 20.5277 45.3501 21.222 45.356 21.9132L46.356 21.9045ZM46.7993 18.0235C46.9547 17.3968 47.153 16.7767 47.3978 16.1668L46.4697 15.7943C46.2071 16.4485 45.9948 17.1128 45.8287 17.7829L46.7993 18.0235ZM48.252 14.4115C48.5698 13.8618 48.9318 13.3238 49.3412 12.8005L48.5536 12.1843C48.1154 12.7444 47.7273 13.3211 47.3863 13.9109L48.252 14.4115ZM50.6425 11.3481C51.0937 10.9059 51.5859 10.4777 52.1216 10.0658L51.512 9.27308C50.9454 9.70872 50.423 10.1631 49.9426 10.6339L50.6425 11.3481ZM53.7421 8.95413C54.2829 8.62295 54.8588 8.30592 55.4713 8.00473L55.03 7.10736C54.3909 7.42164 53.7879 7.75346 53.2199 8.10131L53.7421 8.95413ZM57.2839 7.20396C57.8809 6.96763 58.507 6.74464 59.1633 6.53613L58.8606 5.58307C58.1831 5.7983 57.5351 6.029 56.9158 6.27417L57.2839 7.20396ZM61.0829 5.99061C61.702 5.8341 62.3446 5.68929 63.0113 5.55693L62.8165 4.57607C62.1336 4.71166 61.4742 4.86023 60.8378 5.02112L61.0829 5.99061ZM64.9799 5.21362C65.6289 5.11532 66.2985 5.02791 66.989 4.95196L66.8796 3.95795C66.1761 4.03534 65.4931 4.12449 64.8301 4.2249L64.9799 5.21362ZM68.9535 4.77144C69.6079 4.72267 70.2796 4.68353 70.9688 4.6544L70.9266 3.65529C70.227 3.68486 69.5446 3.72462 68.8791 3.77421L68.9535 4.77144ZM72.9658 4.59906C73.3066 4.5944 73.6513 4.59205 74 4.59205V3.59205C73.6468 3.59205 73.2975 3.59443 72.9521 3.59915L72.9658 4.59906ZM74 4.59205C74.3497 4.59205 74.697 4.59244 75.0419 4.59322L75.0442 3.59323C74.6985 3.59244 74.3504 3.59205 74 3.59205V4.59205ZM77.0943 4.60253C77.7909 4.6073 78.4776 4.61364 79.1547 4.62149L79.1663 3.62156C78.4876 3.61369 77.7993 3.60733 77.1011 3.60256L77.0943 4.60253ZM81.2193 4.65048C81.9164 4.662 82.6029 4.67511 83.279 4.68972L83.3006 3.68995C82.6228 3.67531 81.9346 3.66216 81.2358 3.65061L81.2193 4.65048ZM85.3355 4.73954C86.0317 4.75824 86.7165 4.77852 87.3901 4.80027L87.4224 3.80079C86.747 3.77899 86.0604 3.75865 85.3624 3.7399L85.3355 4.73954ZM89.444 4.87228C90.1419 4.89871 90.8275 4.92669 91.501 4.95606L91.5445 3.95701C90.8691 3.92755 90.1817 3.8995 89.4818 3.873L89.444 4.87228ZM93.5593 5.05189C94.258 5.08649 94.9433 5.12254 95.6155 5.15987L95.671 4.1614C94.9967 4.12397 94.3095 4.08781 93.6087 4.05311L93.5593 5.05189ZM97.6698 5.28017C98.3686 5.32323 99.0528 5.36756 99.723 5.41295L99.7906 4.41523C99.1184 4.36971 98.4322 4.32525 97.7313 4.28206L97.6698 5.28017ZM101.78 5.55853C102.481 5.61025 103.166 5.66296 103.836 5.71633L103.916 4.7195C103.244 4.66597 102.557 4.61312 101.854 4.56124L101.78 5.55853ZM105.889 5.88573C106.589 5.94538 107.271 6.00547 107.937 6.06562L108.027 5.06967C107.359 5.00939 106.675 4.94915 105.974 4.88934L105.889 5.88573ZM109.988 6.2553C110.69 6.32168 111.374 6.38764 112.041 6.45264L112.138 5.45736C111.471 5.39229 110.786 5.32623 110.082 5.25973L109.988 6.2553ZM114.089 6.65383C114.792 6.72326 115.477 6.79085 116.144 6.85583L116.241 5.86054C115.574 5.79564 114.891 5.72812 114.187 5.65866L114.089 6.65383ZM118.198 7.05187C118.901 7.1171 119.586 7.17818 120.254 7.23408L120.337 6.23756C119.673 6.18197 118.992 6.12117 118.291 6.05615L118.198 7.05187ZM122.316 7.39239C123.021 7.44093 123.709 7.48184 124.385 7.51373L124.433 6.51484C123.765 6.48334 123.083 6.44287 122.385 6.39475L122.316 7.39239ZM126.461 7.58242C126.809 7.5886 127.156 7.5918 127.5 7.5918V6.5918C127.162 6.5918 126.821 6.58866 126.478 6.58258L126.461 7.58242ZM127.5 7.5918C127.802 7.5918 128.103 7.59281 128.404 7.59475L128.41 6.59477C128.107 6.59282 127.804 6.5918 127.5 6.5918V7.5918ZM130.211 7.61678C130.822 7.62751 131.426 7.64126 132.02 7.65714L132.046 6.6575C131.45 6.64154 130.843 6.62772 130.229 6.61693L130.211 7.61678ZM133.829 7.71233C134.45 7.73341 135.055 7.75593 135.638 7.77874L135.677 6.77951C135.093 6.75665 134.486 6.73406 133.863 6.71291L133.829 7.71233ZM137.449 7.85215C138.094 7.87892 138.702 7.90432 139.263 7.92625L139.302 6.92702C138.743 6.90514 138.136 6.87981 137.49 6.85301L137.449 7.85215ZM141.083 7.98713C141.423 7.99535 141.73 8 142 8V7C141.741 7 141.443 6.99553 141.108 6.98743L141.083 7.98713Z" fill="#0C6CFB"/>
</svg>

