<svg class="icon icon--full-color" viewBox="0 0 38 24" xmlns="http://www.w3.org/2000/svg" width="38" height="24" aria-labelledby="pi-discover"><title>Discover</title><path opacity=".07" d="M35 0H3C1.3 0 0 1.3 0 3v18c0 1.7 1.4 3 3 3h32c1.7 0 3-1.3 3-3V3c0-1.7-1.4-3-3-3"/><path fill="#fff" d="M35 1c1.1 0 2 .9 2 2v18c0 1.1-.9 2-2 2H3c-1.1 0-2-.9-2-2V3c0-1.1.9-2 2-2z"/><path d="M3.57 7.16H2v5.5h1.57c.83 0 1.43-.2 1.96-.63.63-.52 1-1.38 1-2.12 0-.75-.34-1.58-1-2.12-.53-.4-1.11-.63-1.96-.63m1.26 4.14c-.34.3-.77.44-1.47.44h-.29V8.1h.29c.69 0 1.11.12 1.47.44.37.32.59.78.59 1.37 0 .6-.22 1.06-.59 1.39m2.19-4.14h1.07v5.5H7.02zm3.69 2.11c-.64-.24-.83-.4-.83-.69 0-.35.34-.61.8-.61.32 0 .59.13.86.45l.56-.73c-.46-.4-1.01-.61-1.62-.61-.97 0-1.72.68-1.72 1.58 0 .76.35 1.15 1.35 1.51.42.15.63.25.74.31.21.14.32.34.32.57 0 .45-.35.78-.83.78-.51 0-.92-.26-1.17-.73l-.69.67c.49.73 1.09 1.05 1.9 1.05 1.11 0 1.9-.74 1.9-1.81.02-.89-.35-1.29-1.57-1.74m1.92.65c0 1.62 1.27 2.87 2.9 2.87.46 0 .86-.09 1.34-.32v-1.26c-.43.43-.81.6-1.29.6-1.08 0-1.85-.78-1.85-1.9 0-1.06.79-1.89 1.8-1.89.51 0 .9.18 1.34.62V7.38c-.47-.24-.86-.34-1.32-.34-1.61 0-2.92 1.28-2.92 2.88m12.76.94-1.47-3.7h-1.17l2.33 5.64h.58l2.37-5.64h-1.16zm3.13 1.8h3.04v-.93h-1.97v-1.48h1.9v-.93h-1.9V8.1h1.97v-.94h-3.04zm7.29-3.87c0-1.03-.71-1.62-1.95-1.62h-1.59v5.5h1.07v-2.21h.14l1.48 2.21h1.32l-1.73-2.32c.81-.17 1.26-.72 1.26-1.56m-2.16.91h-.31V8.03h.33c.67 0 1.03.28 1.03.82 0 .55-.36.85-1.05.85" fill="#231f20"/><path d="M20.16 12.86a2.931 2.931 0 1 0 0-5.862 2.931 2.931 0 0 0 0 5.862" fill="url(#a)"/><defs><linearGradient id="a" x1="21.657" y1="12.275" x2="19.632" y2="9.104" gradientUnits="userSpaceOnUse"><stop stop-color="#f89f20"/><stop offset=".25" stop-color="#f79a20"/><stop offset=".533" stop-color="#f68d20"/><stop offset=".62" stop-color="#f58720"/><stop offset=".723" stop-color="#f48120"/><stop offset="1" stop-color="#f37521"/></linearGradient></defs></svg>