<svg fill="#202329" height="800" width="800" xmlns="http://www.w3.org/2000/svg" viewBox="0 0 512.028 512.028" xml:space="preserve"><path d="m436.776 497.792-63.125-178.731c38.912-33.28 63.68-82.624 63.68-137.728C437.331 81.344 355.987 0 255.997 0S74.664 81.344 74.664 181.333c0 55.083 24.789 104.427 63.68 137.728L75.261 497.792c-1.451 4.075-.256 8.661 3.008 11.541A10.75 10.75 0 0 0 85.33 512a10.84 10.84 0 0 0 4.779-1.131l79.232-39.616 48 38.421c2.88 2.304 6.72 2.923 10.219 1.728 3.477-1.237 6.08-4.139 6.869-7.744l14.741-66.347 29.035 68.203a10.57 10.57 0 0 0 7.211 6.165c3.2.875 6.677.064 9.28-2.005l48-38.421 79.232 39.616a10.8 10.8 0 0 0 4.779 1.131c2.539 0 5.056-.917 7.061-2.667a10.7 10.7 0 0 0 3.008-11.541M307.773 332.565l-33.045 7.573c-6.165.725-12.395 1.195-18.731 1.195-88.235 0-160-71.765-160-160s71.765-160 160-160 160 71.765 160 160c0 70.102-45.354 129.664-108.224 151.232"/><path d="M255.997 64c-64.704 0-117.333 52.651-117.333 117.333s52.629 117.333 117.333 117.333S373.33 246.015 373.33 181.333 320.701 64 255.997 64m71.51 82.197-85.333 85.333c-2.091 2.091-4.821 3.115-7.552 3.115s-5.461-1.045-7.552-3.115l-42.667-42.667c-4.117-4.16-4.117-10.901.043-15.083 4.16-4.16 10.923-4.16 15.083 0l35.115 35.115 77.781-77.781c4.16-4.16 10.923-4.16 15.083 0 4.159 4.161 4.159 10.923-.001 15.083"/></svg>