<svg xmlns="http://www.w3.org/2000/svg" id="Layer_1" class="icon" data-name="Layer 1" viewBox="0 0 356.35 399.36">
  <path d="M147.13,453.12H364.87a69.38,69.38,0,0,0,69.31-69.3V176.64a12.33,12.33,0,0,0-12.29-12.29H348.16V145.92a92.16,92.16,0,0,0-184.32,0v18.43H90.11a12.33,12.33,0,0,0-12.29,12.29V383.82A69.38,69.38,0,0,0,147.13,453.12Zm41.29-307.2a67.58,67.58,0,1,1,135.16,0v18.43H188.42Zm221.18,43V383.82a44.81,44.81,0,0,1-44.73,44.72H147.13a44.81,44.81,0,0,1-44.73-44.72V188.93" transform="translate(-77.82 -53.76)"/>
</svg>